<?xml version="1.0" encoding="utf-8" standalone="no"?>
<!DOCTYPE svg PUBLIC "-//W3C//DTD SVG 1.1//EN"
  "http://www.w3.org/Graphics/SVG/1.1/DTD/svg11.dtd">
<svg height="489.71625pt" version="1.1" viewBox="0 0 485.326661 489.71625" width="485.326661pt" xmlns="http://www.w3.org/2000/svg" xmlns:xlink="http://www.w3.org/1999/xlink">
 <metadata>
  <rdf:RDF xmlns:cc="http://creativecommons.org/ns#" xmlns:dc="http://purl.org/dc/elements/1.1/" xmlns:rdf="http://www.w3.org/1999/02/22-rdf-syntax-ns#">
   <cc:Work>
    <dc:type rdf:resource="http://purl.org/dc/dcmitype/StillImage"/>
    <dc:date>2023-12-09T20:55:30.509659</dc:date>
    <dc:format>image/svg+xml</dc:format>
    <dc:creator>
     <cc:Agent>
      <dc:title>Matplotlib v3.4.3, https://matplotlib.org/</dc:title>
     </cc:Agent>
    </dc:creator>
   </cc:Work>
  </rdf:RDF>
 </metadata>
 <defs>
  <style type="text/css">*{stroke-linecap:butt;stroke-linejoin:round;}</style>
 </defs>
 <g id="figure_1">
  <g id="patch_1">
   <path d="M 0 489.71625 
L 485.326661 489.71625 
L 485.326661 0 
L 0 0 
z
" style="fill:#ffffff;"/>
  </g>
  <g id="axes_1">
   <g id="patch_2">
    <path d="M 26.925 465.838125 
L 473.325 465.838125 
L 473.325 22.318125 
L 26.925 22.318125 
z
" style="fill:#ffffff;"/>
   </g>
   <g id="PathCollection_1">
    <defs>
     <path d="M 0 -11.18034 
L -2.510143 -3.454915 
L -10.633135 -3.454915 
L -4.061496 1.31966 
L -6.571639 9.045085 
L -0 4.27051 
L 6.571639 9.045085 
L 4.061496 1.31966 
L 10.633135 -3.454915 
L 2.510143 -3.454915 
z
" id="mece59cf5fb" style="stroke:#0000ff;"/>
    </defs>
    <g clip-path="url(#p0e795693b0)">
     <use style="fill:#0000ff;stroke:#0000ff;" x="253.246678" xlink:href="#mece59cf5fb" y="271.321368"/>
    </g>
   </g>
   <g id="PathCollection_2">
    <defs>
     <path d="M -11.18034 11.18034 
L 11.18034 -11.18034 
M -11.18034 -11.18034 
L 11.18034 11.18034 
" id="md01fd1a3c6" style="stroke:#000000;stroke-width:1.5;"/>
    </defs>
    <g clip-path="url(#p0e795693b0)">
     <use style="stroke:#000000;stroke-width:1.5;" x="253.246678" xlink:href="#md01fd1a3c6" y="271.321368"/>
    </g>
   </g>
   <g id="PathCollection_3">
    <defs>
     <path d="M 0 5 
C 1.326016 5 2.597899 4.473168 3.535534 3.535534 
C 4.473168 2.597899 5 1.326016 5 0 
C 5 -1.326016 4.473168 -2.597899 3.535534 -3.535534 
C 2.597899 -4.473168 1.326016 -5 0 -5 
C -1.326016 -5 -2.597899 -4.473168 -3.535534 -3.535534 
C -4.473168 -2.597899 -5 -1.326016 -5 0 
C -5 1.326016 -4.473168 2.597899 -3.535534 3.535534 
C -2.597899 4.473168 -1.326016 5 0 5 
z
" id="ma9a23cbd83" style="stroke:#ffff00;"/>
    </defs>
    <g clip-path="url(#p0e795693b0)">
     <use style="fill:#ffff00;stroke:#ffff00;" x="165.839685" xlink:href="#ma9a23cbd83" y="331.256503"/>
    </g>
   </g>
   <g id="PathCollection_4">
    <g clip-path="url(#p0e795693b0)">
     <use style="fill:#ffff00;stroke:#ffff00;" x="222.029895" xlink:href="#ma9a23cbd83" y="325.807855"/>
    </g>
   </g>
   <g id="PathCollection_5">
    <defs>
     <path d="M 0 3.736765 
C 0.991002 3.736765 1.941548 3.343036 2.642292 2.642292 
C 3.343036 1.941548 3.736765 0.991002 3.736765 0 
C 3.736765 -0.991002 3.343036 -1.941548 2.642292 -2.642292 
C 1.941548 -3.343036 0.991002 -3.736765 0 -3.736765 
C -0.991002 -3.736765 -1.941548 -3.343036 -2.642292 -2.642292 
C -3.343036 -1.941548 -3.736765 -0.991002 -3.736765 0 
C -3.736765 0.991002 -3.343036 1.941548 -2.642292 2.642292 
C -1.941548 3.343036 -0.991002 3.736765 0 3.736765 
z
" id="m35466a76c6" style="stroke:#d0a2a2;"/>
    </defs>
    <g clip-path="url(#p0e795693b0)">
     <use style="fill:#d0a2a2;stroke:#d0a2a2;" x="128.379545" xlink:href="#m35466a76c6" y="298.564611"/>
    </g>
   </g>
   <g id="PathCollection_6">
    <defs>
     <path d="M 0 3.797464 
C 1.007099 3.797464 1.973086 3.397339 2.685212 2.685212 
C 3.397339 1.973086 3.797464 1.007099 3.797464 0 
C 3.797464 -1.007099 3.397339 -1.973086 2.685212 -2.685212 
C 1.973086 -3.397339 1.007099 -3.797464 0 -3.797464 
C -1.007099 -3.797464 -1.973086 -3.397339 -2.685212 -2.685212 
C -3.397339 -1.973086 -3.797464 -1.007099 -3.797464 0 
C -3.797464 1.007099 -3.397339 1.973086 -2.685212 2.685212 
C -1.973086 3.397339 -1.007099 3.797464 0 3.797464 
z
" id="mb97e3416f3" style="stroke:#dab4b4;"/>
    </defs>
    <g clip-path="url(#p0e795693b0)">
     <use style="fill:#dab4b4;stroke:#dab4b4;" x="378.113811" xlink:href="#mb97e3416f3" y="434.780828"/>
    </g>
   </g>
   <g id="PathCollection_7">
    <defs>
     <path d="M 0 3.757107 
C 0.996396 3.757107 1.952117 3.361235 2.656676 2.656676 
C 3.361235 1.952117 3.757107 0.996396 3.757107 0 
C 3.757107 -0.996396 3.361235 -1.952117 2.656676 -2.656676 
C 1.952117 -3.361235 0.996396 -3.757107 0 -3.757107 
C -0.996396 -3.757107 -1.952117 -3.361235 -2.656676 -2.656676 
C -3.361235 -1.952117 -3.757107 -0.996396 -3.757107 0 
C -3.757107 0.996396 -3.361235 1.952117 -2.656676 2.656676 
C -1.952117 3.361235 -0.996396 3.757107 0 3.757107 
z
" id="m533a7cd9e7" style="stroke:#d3a8a8;"/>
    </defs>
    <g clip-path="url(#p0e795693b0)">
     <use style="fill:#d3a8a8;stroke:#d3a8a8;" x="228.273252" xlink:href="#m533a7cd9e7" y="178.694341"/>
    </g>
   </g>
   <g id="PathCollection_8">
    <defs>
     <path d="M 0 3.837396 
C 1.017689 3.837396 1.993834 3.433064 2.713449 2.713449 
C 3.433064 1.993834 3.837396 1.017689 3.837396 0 
C 3.837396 -1.017689 3.433064 -1.993834 2.713449 -2.713449 
C 1.993834 -3.433064 1.017689 -3.837396 0 -3.837396 
C -1.017689 -3.837396 -1.993834 -3.433064 -2.713449 -2.713449 
C -3.433064 -1.993834 -3.837396 -1.017689 -3.837396 0 
C -3.837396 1.017689 -3.433064 1.993834 -2.713449 2.713449 
C -1.993834 3.433064 -1.017689 3.837396 0 3.837396 
z
" id="mffb40cdc86" style="stroke:#e0c1c1;"/>
    </defs>
    <g clip-path="url(#p0e795693b0)">
     <use style="fill:#e0c1c1;stroke:#e0c1c1;" x="409.330594" xlink:href="#mffb40cdc86" y="396.640287"/>
    </g>
   </g>
   <g id="PathCollection_9">
    <g clip-path="url(#p0e795693b0)">
     <use style="fill:#d3a8a8;stroke:#d3a8a8;" x="84.676049" xlink:href="#m533a7cd9e7" y="156.899747"/>
    </g>
   </g>
   <g id="PathCollection_10">
    <defs>
     <path d="M 0 3.935455 
C 1.043695 3.935455 2.044783 3.520791 2.782787 2.782787 
C 3.520791 2.044783 3.935455 1.043695 3.935455 0 
C 3.935455 -1.043695 3.520791 -2.044783 2.782787 -2.782787 
C 2.044783 -3.520791 1.043695 -3.935455 0 -3.935455 
C -1.043695 -3.935455 -2.044783 -3.520791 -2.782787 -2.782787 
C -3.520791 -2.044783 -3.935455 -1.043695 -3.935455 0 
C -3.935455 1.043695 -3.520791 2.044783 -2.782787 2.782787 
C -2.044783 3.520791 -1.043695 3.935455 0 3.935455 
z
" id="m77b69bfad7" style="stroke:#efe0e0;"/>
    </defs>
    <g clip-path="url(#p0e795693b0)">
     <use style="fill:#efe0e0;stroke:#efe0e0;" x="115.892832" xlink:href="#m77b69bfad7" y="178.694341"/>
    </g>
   </g>
   <g id="PathCollection_11">
    <defs>
     <path d="M 0 3.817482 
C 1.012408 3.817482 1.983487 3.415248 2.699368 2.699368 
C 3.415248 1.983487 3.817482 1.012408 3.817482 0 
C 3.817482 -1.012408 3.415248 -1.983487 2.699368 -2.699368 
C 1.983487 -3.415248 1.012408 -3.817482 0 -3.817482 
C -1.012408 -3.817482 -1.983487 -3.415248 -2.699368 -2.699368 
C -3.415248 -1.983487 -3.817482 -1.012408 -3.817482 0 
C -3.817482 1.012408 -3.415248 1.983487 -2.699368 2.699368 
C -1.983487 3.415248 -1.012408 3.817482 0 3.817482 
z
" id="med3daf617d" style="stroke:#ddbbbb;"/>
    </defs>
    <g clip-path="url(#p0e795693b0)">
     <use style="fill:#ddbbbb;stroke:#ddbbbb;" x="72.189336" xlink:href="#med3daf617d" y="91.515963"/>
    </g>
   </g>
   <g id="PathCollection_12">
    <defs>
     <path d="M 0 3.777339 
C 1.001762 3.777339 1.962629 3.379335 2.670982 2.670982 
C 3.379335 1.962629 3.777339 1.001762 3.777339 0 
C 3.777339 -1.001762 3.379335 -1.962629 2.670982 -2.670982 
C 1.962629 -3.379335 1.001762 -3.777339 0 -3.777339 
C -1.001762 -3.777339 -1.962629 -3.379335 -2.670982 -2.670982 
C -3.379335 -1.962629 -3.777339 -1.001762 -3.777339 0 
C -3.777339 1.001762 -3.379335 1.962629 -2.670982 2.670982 
C -1.962629 3.379335 -1.001762 3.777339 0 3.777339 
z
" id="mfc26e5bd48" style="stroke:#d7aeae;"/>
    </defs>
    <g clip-path="url(#p0e795693b0)">
     <use style="fill:#d7aeae;stroke:#d7aeae;" x="165.839685" xlink:href="#mfc26e5bd48" y="331.256503"/>
    </g>
   </g>
   <g id="PathCollection_13">
    <g clip-path="url(#p0e795693b0)">
     <use style="fill:#efe0e0;stroke:#efe0e0;" x="384.357168" xlink:href="#m77b69bfad7" y="249.526774"/>
    </g>
   </g>
   <g id="PathCollection_14">
    <g clip-path="url(#p0e795693b0)">
     <use style="fill:#d0a2a2;stroke:#d0a2a2;" x="378.113811" xlink:href="#m35466a76c6" y="167.797044"/>
    </g>
   </g>
   <g id="PathCollection_15">
    <defs>
     <path d="M 0 4.031129 
C 1.069068 4.031129 2.094493 3.606384 2.850439 2.850439 
C 3.606384 2.094493 4.031129 1.069068 4.031129 0 
C 4.031129 -1.069068 3.606384 -2.094493 2.850439 -2.850439 
C 2.094493 -3.606384 1.069068 -4.031129 0 -4.031129 
C -1.069068 -4.031129 -2.094493 -3.606384 -2.850439 -2.850439 
C -3.606384 -2.094493 -4.031129 -1.069068 -4.031129 0 
C -4.031129 1.069068 -3.606384 2.094493 -2.850439 2.850439 
C -2.094493 3.606384 -1.069068 4.031129 0 4.031129 
z
" id="m9965311720" style="stroke:#ffffff;"/>
    </defs>
    <g clip-path="url(#p0e795693b0)">
     <use style="fill:#ffffff;stroke:#ffffff;" x="134.622902" xlink:href="#m9965311720" y="342.153801"/>
    </g>
   </g>
   <g id="PathCollection_16">
    <defs>
     <path d="M 0 3.91604 
C 1.038546 3.91604 2.034695 3.503421 2.769058 2.769058 
C 3.503421 2.034695 3.91604 1.038546 3.91604 0 
C 3.91604 -1.038546 3.503421 -2.034695 2.769058 -2.769058 
C 2.034695 -3.503421 1.038546 -3.91604 0 -3.91604 
C -1.038546 -3.91604 -2.034695 -3.503421 -2.769058 -2.769058 
C -3.503421 -2.034695 -3.91604 -1.038546 -3.91604 0 
C -3.91604 1.038546 -3.503421 2.034695 -2.769058 2.769058 
C -2.034695 3.503421 -1.038546 3.91604 0 3.91604 
z
" id="ma11a1f7b8d" style="stroke:#ecdada;"/>
    </defs>
    <g clip-path="url(#p0e795693b0)">
     <use style="fill:#ecdada;stroke:#ecdada;" x="59.702622" xlink:href="#ma11a1f7b8d" y="363.948395"/>
    </g>
   </g>
   <g id="PathCollection_17">
    <g clip-path="url(#p0e795693b0)">
     <use style="fill:#d0a2a2;stroke:#d0a2a2;" x="209.543182" xlink:href="#m35466a76c6" y="363.948395"/>
    </g>
   </g>
   <g id="PathCollection_18">
    <g clip-path="url(#p0e795693b0)">
     <use style="fill:#d3a8a8;stroke:#d3a8a8;" x="197.056469" xlink:href="#m533a7cd9e7" y="314.910557"/>
    </g>
   </g>
   <g id="PathCollection_19">
    <defs>
     <path d="M 0 3.46146 
C 0.91799 3.46146 1.798505 3.096739 2.447622 2.447622 
C 3.096739 1.798505 3.46146 0.91799 3.46146 0 
C 3.46146 -0.91799 3.096739 -1.798505 2.447622 -2.447622 
C 1.798505 -3.096739 0.91799 -3.46146 0 -3.46146 
C -0.91799 -3.46146 -1.798505 -3.096739 -2.447622 -2.447622 
C -3.096739 -1.798505 -3.46146 -0.91799 -3.46146 0 
C -3.46146 0.91799 -3.096739 1.798505 -2.447622 2.447622 
C -1.798505 3.096739 -0.91799 3.46146 0 3.46146 
z
" id="m3bd819b198" style="stroke:#a85151;"/>
    </defs>
    <g clip-path="url(#p0e795693b0)">
     <use style="fill:#a85151;stroke:#a85151;" x="378.113811" xlink:href="#m3bd819b198" y="216.834882"/>
    </g>
   </g>
   <g id="PathCollection_20">
    <defs>
     <path d="M 0 3.591148 
C 0.952383 3.591148 1.865888 3.212762 2.539325 2.539325 
C 3.212762 1.865888 3.591148 0.952383 3.591148 0 
C 3.591148 -0.952383 3.212762 -1.865888 2.539325 -2.539325 
C 1.865888 -3.212762 0.952383 -3.591148 0 -3.591148 
C -0.952383 -3.591148 -1.865888 -3.212762 -2.539325 -2.539325 
C -3.212762 -1.865888 -3.591148 -0.952383 -3.591148 0 
C -3.591148 0.952383 -3.212762 1.865888 -2.539325 2.539325 
C -1.865888 3.212762 -0.952383 3.591148 0 3.591148 
z
" id="mfc729dac9e" style="stroke:#bb7676;"/>
    </defs>
    <g clip-path="url(#p0e795693b0)">
     <use style="fill:#bb7676;stroke:#bb7676;" x="378.113811" xlink:href="#mfc729dac9e" y="353.051098"/>
    </g>
   </g>
   <g id="PathCollection_21">
    <defs>
     <path d="M 0 3.5269 
C 0.935345 3.5269 1.832506 3.155284 2.493895 2.493895 
C 3.155284 1.832506 3.5269 0.935345 3.5269 0 
C 3.5269 -0.935345 3.155284 -1.832506 2.493895 -2.493895 
C 1.832506 -3.155284 0.935345 -3.5269 0 -3.5269 
C -0.935345 -3.5269 -1.832506 -3.155284 -2.493895 -2.493895 
C -3.155284 -1.832506 -3.5269 -0.935345 -3.5269 0 
C -3.5269 0.935345 -3.155284 1.832506 -2.493895 2.493895 
C -1.832506 3.155284 -0.935345 3.5269 0 3.5269 
z
" id="m178d8d3077" style="stroke:#b16464;"/>
    </defs>
    <g clip-path="url(#p0e795693b0)">
     <use style="fill:#b16464;stroke:#b16464;" x="378.113811" xlink:href="#m178d8d3077" y="135.105152"/>
    </g>
   </g>
   <g id="PathCollection_22">
    <g clip-path="url(#p0e795693b0)">
     <use style="fill:#b16464;stroke:#b16464;" x="222.029895" xlink:href="#m178d8d3077" y="135.105152"/>
    </g>
   </g>
   <g id="PathCollection_23">
    <defs>
     <path d="M 0 3.43937 
C 0.912132 3.43937 1.787028 3.076977 2.432002 2.432002 
C 3.076977 1.787028 3.43937 0.912132 3.43937 0 
C 3.43937 -0.912132 3.076977 -1.787028 2.432002 -2.432002 
C 1.787028 -3.076977 0.912132 -3.43937 0 -3.43937 
C -0.912132 -3.43937 -1.787028 -3.076977 -2.432002 -2.432002 
C -3.076977 -1.787028 -3.43937 -0.912132 -3.43937 0 
C -3.43937 0.912132 -3.076977 1.787028 -2.432002 2.432002 
C -1.787028 3.076977 -0.912132 3.43937 0 3.43937 
z
" id="me074be9494" style="stroke:#a54b4b;"/>
    </defs>
    <g clip-path="url(#p0e795693b0)">
     <use style="fill:#a54b4b;stroke:#a54b4b;" x="159.596329" xlink:href="#me074be9494" y="107.861909"/>
    </g>
   </g>
   <g id="PathCollection_24">
    <g clip-path="url(#p0e795693b0)">
     <use style="fill:#bb7676;stroke:#bb7676;" x="346.897028" xlink:href="#mfc729dac9e" y="271.321368"/>
    </g>
   </g>
   <g id="PathCollection_25">
    <defs>
     <path d="M 0 3.675064 
C 0.974638 3.675064 1.909489 3.287836 2.598663 2.598663 
C 3.287836 1.909489 3.675064 0.974638 3.675064 0 
C 3.675064 -0.974638 3.287836 -1.909489 2.598663 -2.598663 
C 1.909489 -3.287836 0.974638 -3.675064 0 -3.675064 
C -0.974638 -3.675064 -1.909489 -3.287836 -2.598663 -2.598663 
C -3.287836 -1.909489 -3.675064 -0.974638 -3.675064 0 
C -3.675064 0.974638 -3.287836 1.909489 -2.598663 2.598663 
C -1.909489 3.287836 -0.974638 3.675064 0 3.675064 
z
" id="mebdece294d" style="stroke:#c78f8f;"/>
    </defs>
    <g clip-path="url(#p0e795693b0)">
     <use style="fill:#c78f8f;stroke:#c78f8f;" x="222.029895" xlink:href="#mebdece294d" y="325.807855"/>
    </g>
   </g>
   <g id="PathCollection_26">
    <defs>
     <path d="M 0 3.61231 
C 0.957996 3.61231 1.876883 3.231694 2.554289 2.554289 
C 3.231694 1.876883 3.61231 0.957996 3.61231 0 
C 3.61231 -0.957996 3.231694 -1.876883 2.554289 -2.554289 
C 1.876883 -3.231694 0.957996 -3.61231 0 -3.61231 
C -0.957996 -3.61231 -1.876883 -3.231694 -2.554289 -2.554289 
C -3.231694 -1.876883 -3.61231 -0.957996 -3.61231 0 
C -3.61231 0.957996 -3.231694 1.876883 -2.554289 2.554289 
C -1.876883 3.231694 -0.957996 3.61231 0 3.61231 
z
" id="mc73a3e19a1" style="stroke:#be7c7c;"/>
    </defs>
    <g clip-path="url(#p0e795693b0)">
     <use style="fill:#be7c7c;stroke:#be7c7c;" x="128.379545" xlink:href="#mc73a3e19a1" y="407.537584"/>
    </g>
   </g>
   <g id="PathCollection_27">
    <g clip-path="url(#p0e795693b0)">
     <use style="fill:#bb7676;stroke:#bb7676;" x="97.162762" xlink:href="#mfc729dac9e" y="353.051098"/>
    </g>
   </g>
   <g id="PathCollection_28">
    <g clip-path="url(#p0e795693b0)">
     <use style="fill:#a54b4b;stroke:#a54b4b;" x="159.596329" xlink:href="#me074be9494" y="244.078125"/>
    </g>
   </g>
   <g id="PathCollection_29">
    <defs>
     <path d="M 0 3.548445 
C 0.941059 3.548445 1.843701 3.174559 2.50913 2.50913 
C 3.174559 1.843701 3.548445 0.941059 3.548445 0 
C 3.548445 -0.941059 3.174559 -1.843701 2.50913 -2.50913 
C 1.843701 -3.174559 0.941059 -3.548445 0 -3.548445 
C -0.941059 -3.548445 -1.843701 -3.174559 -2.50913 -2.50913 
C -3.174559 -1.843701 -3.548445 -0.941059 -3.548445 0 
C -3.548445 0.941059 -3.174559 1.843701 -2.50913 2.50913 
C -1.843701 3.174559 -0.941059 3.548445 0 3.548445 
z
" id="md23c7a905a" style="stroke:#b46a6a;"/>
    </defs>
    <g clip-path="url(#p0e795693b0)">
     <use style="fill:#b46a6a;stroke:#b46a6a;" x="128.379545" xlink:href="#md23c7a905a" y="135.105152"/>
    </g>
   </g>
   <g id="PathCollection_30">
    <defs>
     <path d="M 0 3.417138 
C 0.906235 3.417138 1.775476 3.057086 2.416281 2.416281 
C 3.057086 1.775476 3.417138 0.906235 3.417138 0 
C 3.417138 -0.906235 3.057086 -1.775476 2.416281 -2.416281 
C 1.775476 -3.057086 0.906235 -3.417138 0 -3.417138 
C -0.906235 -3.417138 -1.775476 -3.057086 -2.416281 -2.416281 
C -3.057086 -1.775476 -3.417138 -0.906235 -3.417138 0 
C -3.417138 0.906235 -3.057086 1.775476 -2.416281 2.416281 
C -1.775476 3.057086 -0.906235 3.417138 0 3.417138 
z
" id="m7a0c41bd0e" style="stroke:#a24444;"/>
    </defs>
    <g clip-path="url(#p0e795693b0)">
     <use style="fill:#a24444;stroke:#a24444;" x="315.680245" xlink:href="#m7a0c41bd0e" y="353.051098"/>
    </g>
   </g>
   <g id="PathCollection_31">
    <defs>
     <path d="M 0 3.56986 
C 0.946738 3.56986 1.854828 3.193717 2.524272 2.524272 
C 3.193717 1.854828 3.56986 0.946738 3.56986 0 
C 3.56986 -0.946738 3.193717 -1.854828 2.524272 -2.524272 
C 1.854828 -3.193717 0.946738 -3.56986 0 -3.56986 
C -0.946738 -3.56986 -1.854828 -3.193717 -2.524272 -2.524272 
C -3.193717 -1.854828 -3.56986 -0.946738 -3.56986 0 
C -3.56986 0.946738 -3.193717 1.854828 -2.524272 2.524272 
C -1.854828 3.193717 -0.946738 3.56986 0 3.56986 
z
" id="mac55b827d9" style="stroke:#b77070;"/>
    </defs>
    <g clip-path="url(#p0e795693b0)">
     <use style="fill:#b77070;stroke:#b77070;" x="315.680245" xlink:href="#mac55b827d9" y="407.537584"/>
    </g>
   </g>
   <g id="PathCollection_32">
    <g clip-path="url(#p0e795693b0)">
     <use style="fill:#b46a6a;stroke:#b46a6a;" x="315.680245" xlink:href="#md23c7a905a" y="298.564611"/>
    </g>
   </g>
   <g id="PathCollection_33">
    <g clip-path="url(#p0e795693b0)">
     <use style="fill:#b16464;stroke:#b16464;" x="253.246678" xlink:href="#m178d8d3077" y="244.078125"/>
    </g>
   </g>
   <g id="PathCollection_34">
    <g clip-path="url(#p0e795693b0)">
     <use style="fill:#b16464;stroke:#b16464;" x="290.706818" xlink:href="#m178d8d3077" y="260.424071"/>
    </g>
   </g>
   <g id="PathCollection_35">
    <defs>
     <path d="M 0 3.633348 
C 0.963575 3.633348 1.887815 3.250516 2.569165 2.569165 
C 3.250516 1.887815 3.633348 0.963575 3.633348 0 
C 3.633348 -0.963575 3.250516 -1.887815 2.569165 -2.569165 
C 1.887815 -3.250516 0.963575 -3.633348 0 -3.633348 
C -0.963575 -3.633348 -1.887815 -3.250516 -2.569165 -2.569165 
C -3.250516 -1.887815 -3.633348 -0.963575 -3.633348 0 
C -3.633348 0.963575 -3.250516 1.887815 -2.569165 2.569165 
C -1.887815 3.250516 -0.963575 3.633348 0 3.633348 
z
" id="m7379df4a52" style="stroke:#c18383;"/>
    </defs>
    <g clip-path="url(#p0e795693b0)">
     <use style="fill:#c18383;stroke:#c18383;" x="284.463462" xlink:href="#m7379df4a52" y="135.105152"/>
    </g>
   </g>
   <g id="PathCollection_36">
    <g clip-path="url(#p0e795693b0)">
     <use style="fill:#c78f8f;stroke:#c78f8f;" x="253.246678" xlink:href="#mebdece294d" y="86.067314"/>
    </g>
   </g>
   <g id="PathCollection_37">
    <g clip-path="url(#p0e795693b0)">
     <use style="fill:#a24444;stroke:#a24444;" x="365.627098" xlink:href="#m7a0c41bd0e" y="178.694341"/>
    </g>
   </g>
   <g id="PathCollection_38">
    <defs>
     <path d="M 0 3.48341 
C 0.923811 3.48341 1.80991 3.116376 2.463143 2.463143 
C 3.116376 1.80991 3.48341 0.923811 3.48341 0 
C 3.48341 -0.923811 3.116376 -1.80991 2.463143 -2.463143 
C 1.80991 -3.116376 0.923811 -3.48341 0 -3.48341 
C -0.923811 -3.48341 -1.80991 -3.116376 -2.463143 -2.463143 
C -3.116376 -1.80991 -3.48341 -0.923811 -3.48341 0 
C -3.48341 0.923811 -3.116376 1.80991 -2.463143 2.463143 
C -1.80991 3.116376 -0.923811 3.48341 0 3.48341 
z
" id="m520691bad1" style="stroke:#ab5757;"/>
    </defs>
    <g clip-path="url(#p0e795693b0)">
     <use style="fill:#ab5757;stroke:#ab5757;" x="440.547378" xlink:href="#m520691bad1" y="162.348395"/>
    </g>
   </g>
   <g id="PathCollection_39">
    <g clip-path="url(#p0e795693b0)">
     <use style="fill:#b16464;stroke:#b16464;" x="65.945979" xlink:href="#m178d8d3077" y="434.780828"/>
    </g>
   </g>
   <g id="PathCollection_40">
    <g clip-path="url(#p0e795693b0)">
     <use style="fill:#b77070;stroke:#b77070;" x="103.406119" xlink:href="#mac55b827d9" y="385.74299"/>
    </g>
   </g>
   <g id="PathCollection_41">
    <g clip-path="url(#p0e795693b0)">
     <use style="fill:#b16464;stroke:#b16464;" x="72.189336" xlink:href="#m178d8d3077" y="254.975422"/>
    </g>
   </g>
   <g id="PathCollection_42">
    <g clip-path="url(#p0e795693b0)">
     <use style="fill:#a85151;stroke:#a85151;" x="328.166958" xlink:href="#m3bd819b198" y="205.937584"/>
    </g>
   </g>
   <g id="PathCollection_43">
    <g clip-path="url(#p0e795693b0)">
     <use style="fill:#ab5757;stroke:#ab5757;" x="265.733392" xlink:href="#m520691bad1" y="293.115963"/>
    </g>
   </g>
   <g id="PathCollection_44">
    <g clip-path="url(#p0e795693b0)">
     <use style="fill:#b77070;stroke:#b77070;" x="390.600524" xlink:href="#mac55b827d9" y="304.01326"/>
    </g>
   </g>
   <g id="PathCollection_45">
    <g clip-path="url(#p0e795693b0)">
     <use style="fill:#b77070;stroke:#b77070;" x="259.490035" xlink:href="#mac55b827d9" y="320.359206"/>
    </g>
   </g>
   <g id="PathCollection_46">
    <g clip-path="url(#p0e795693b0)">
     <use style="fill:#a85151;stroke:#a85151;" x="109.649476" xlink:href="#m3bd819b198" y="331.256503"/>
    </g>
   </g>
   <g id="PathCollection_47">
    <g clip-path="url(#p0e795693b0)">
     <use style="fill:#bb7676;stroke:#bb7676;" x="184.569755" xlink:href="#mfc729dac9e" y="146.002449"/>
    </g>
   </g>
   <g id="PathCollection_48">
    <g clip-path="url(#p0e795693b0)">
     <use style="fill:#be7c7c;stroke:#be7c7c;" x="421.817308" xlink:href="#mc73a3e19a1" y="42.478125"/>
    </g>
   </g>
   <g id="PathCollection_49">
    <defs>
     <path d="M 0 3.716312 
C 0.985577 3.716312 1.930921 3.324738 2.627829 2.627829 
C 3.324738 1.930921 3.716312 0.985577 3.716312 0 
C 3.716312 -0.985577 3.324738 -1.930921 2.627829 -2.627829 
C 1.930921 -3.324738 0.985577 -3.716312 0 -3.716312 
C -0.985577 -3.716312 -1.930921 -3.324738 -2.627829 -2.627829 
C -3.324738 -1.930921 -3.716312 -0.985577 -3.716312 0 
C -3.716312 0.985577 -3.324738 1.930921 -2.627829 2.627829 
C -1.930921 3.324738 -0.985577 3.716312 0 3.716312 
z
" id="m92ab69f5fc" style="stroke:#cd9b9b;"/>
    </defs>
    <g clip-path="url(#p0e795693b0)">
     <use style="fill:#cd9b9b;stroke:#cd9b9b;" x="340.653671" xlink:href="#m92ab69f5fc" y="64.27272"/>
    </g>
   </g>
   <g id="PathCollection_50">
    <g clip-path="url(#p0e795693b0)">
     <use style="fill:#cd9b9b;stroke:#cd9b9b;" x="453.034091" xlink:href="#m92ab69f5fc" y="434.780828"/>
    </g>
   </g>
   <g id="PathCollection_51">
    <defs>
     <path d="M 0 3.505223 
C 0.929596 3.505223 1.821243 3.13589 2.478567 2.478567 
C 3.13589 1.821243 3.505223 0.929596 3.505223 0 
C 3.505223 -0.929596 3.13589 -1.821243 2.478567 -2.478567 
C 1.821243 -3.13589 0.929596 -3.505223 0 -3.505223 
C -0.929596 -3.505223 -1.821243 -3.13589 -2.478567 -2.478567 
C -3.13589 -1.821243 -3.505223 -0.929596 -3.505223 0 
C -3.505223 0.929596 -3.13589 1.821243 -2.478567 2.478567 
C -1.821243 3.13589 -0.929596 3.505223 0 3.505223 
z
" id="m32f07e9914" style="stroke:#ae5d5d;"/>
    </defs>
    <g clip-path="url(#p0e795693b0)">
     <use style="fill:#ae5d5d;stroke:#ae5d5d;" x="390.600524" xlink:href="#m32f07e9914" y="91.515963"/>
    </g>
   </g>
   <g id="PathCollection_52">
    <g clip-path="url(#p0e795693b0)">
     <use style="fill:#cd9b9b;stroke:#cd9b9b;" x="328.166958" xlink:href="#m92ab69f5fc" y="374.845693"/>
    </g>
   </g>
   <g id="PathCollection_53">
    <g clip-path="url(#p0e795693b0)">
     <use style="fill:#b77070;stroke:#b77070;" x="340.653671" xlink:href="#mac55b827d9" y="402.088936"/>
    </g>
   </g>
   <g id="PathCollection_54">
    <g clip-path="url(#p0e795693b0)">
     <use style="fill:#a85151;stroke:#a85151;" x="340.653671" xlink:href="#m3bd819b198" y="233.180828"/>
    </g>
   </g>
   <g id="PathCollection_55">
    <g clip-path="url(#p0e795693b0)">
     <use style="fill:#ab5757;stroke:#ab5757;" x="365.627098" xlink:href="#m520691bad1" y="227.732179"/>
    </g>
   </g>
   <g id="PathCollection_56">
    <g clip-path="url(#p0e795693b0)">
     <use style="fill:#c78f8f;stroke:#c78f8f;" x="390.600524" xlink:href="#mebdece294d" y="200.488936"/>
    </g>
   </g>
   <g id="PathCollection_57">
    <g clip-path="url(#p0e795693b0)">
     <use style="fill:#b16464;stroke:#b16464;" x="128.379545" xlink:href="#m178d8d3077" y="205.937584"/>
    </g>
   </g>
   <g id="PathCollection_58">
    <g clip-path="url(#p0e795693b0)">
     <use style="fill:#a24444;stroke:#a24444;" x="122.136189" xlink:href="#m7a0c41bd0e" y="260.424071"/>
    </g>
   </g>
   <g id="PathCollection_59">
    <g clip-path="url(#p0e795693b0)">
     <use style="fill:#ae5d5d;stroke:#ae5d5d;" x="197.056469" xlink:href="#m32f07e9914" y="271.321368"/>
    </g>
   </g>
   <g id="PathCollection_60">
    <defs>
     <path d="M 0 3.654266 
C 0.969123 3.654266 1.898683 3.269229 2.583956 2.583956 
C 3.269229 1.898683 3.654266 0.969123 3.654266 0 
C 3.654266 -0.969123 3.269229 -1.898683 2.583956 -2.583956 
C 1.898683 -3.269229 0.969123 -3.654266 0 -3.654266 
C -0.969123 -3.654266 -1.898683 -3.269229 -2.583956 -2.583956 
C -3.269229 -1.898683 -3.654266 -0.969123 -3.654266 0 
C -3.654266 0.969123 -3.269229 1.898683 -2.583956 2.583956 
C -1.898683 3.269229 -0.969123 3.654266 0 3.654266 
z
" id="m579aa869ad" style="stroke:#c48989;"/>
    </defs>
    <g clip-path="url(#p0e795693b0)">
     <use style="fill:#c48989;stroke:#c48989;" x="147.109615" xlink:href="#m579aa869ad" y="331.256503"/>
    </g>
   </g>
   <g id="PathCollection_61">
    <g clip-path="url(#p0e795693b0)">
     <use style="fill:#be7c7c;stroke:#be7c7c;" x="190.813112" xlink:href="#mc73a3e19a1" y="331.256503"/>
    </g>
   </g>
   <g id="PathCollection_62">
    <g clip-path="url(#p0e795693b0)">
     <use style="fill:#a24444;stroke:#a24444;" x="172.083042" xlink:href="#m7a0c41bd0e" y="314.910557"/>
    </g>
   </g>
   <g id="PathCollection_63">
    <g clip-path="url(#p0e795693b0)">
     <use style="fill:#a54b4b;stroke:#a54b4b;" x="190.813112" xlink:href="#me074be9494" y="347.602449"/>
    </g>
   </g>
   <g id="PathCollection_64">
    <g clip-path="url(#p0e795693b0)">
     <use style="fill:#b46a6a;stroke:#b46a6a;" x="147.109615" xlink:href="#md23c7a905a" y="363.948395"/>
    </g>
   </g>
   <g id="PathCollection_65">
    <defs>
     <path d="M 0 3.394759 
C 0.900301 3.394759 1.763849 3.037066 2.400457 2.400457 
C 3.037066 1.763849 3.394759 0.900301 3.394759 0 
C 3.394759 -0.900301 3.037066 -1.763849 2.400457 -2.400457 
C 1.763849 -3.037066 0.900301 -3.394759 0 -3.394759 
C -0.900301 -3.394759 -1.763849 -3.037066 -2.400457 -2.400457 
C -3.037066 -1.763849 -3.394759 -0.900301 -3.394759 0 
C -3.394759 0.900301 -3.037066 1.763849 -2.400457 2.400457 
C -1.763849 3.037066 -0.900301 3.394759 0 3.394759 
z
" id="m32d98c6b5c" style="stroke:#9f3e3e;"/>
    </defs>
    <g clip-path="url(#p0e795693b0)">
     <use style="fill:#9f3e3e;stroke:#9f3e3e;" x="290.706818" xlink:href="#m32d98c6b5c" y="195.040287"/>
    </g>
   </g>
   <g id="PathCollection_66">
    <defs>
     <path d="M 0 3.326721 
C 0.882257 3.326721 1.728497 2.976197 2.352347 2.352347 
C 2.976197 1.728497 3.326721 0.882257 3.326721 0 
C 3.326721 -0.882257 2.976197 -1.728497 2.352347 -2.352347 
C 1.728497 -2.976197 0.882257 -3.326721 0 -3.326721 
C -0.882257 -3.326721 -1.728497 -2.976197 -2.352347 -2.352347 
C -2.976197 -1.728497 -3.326721 -0.882257 -3.326721 0 
C -3.326721 0.882257 -2.976197 1.728497 -2.352347 2.352347 
C -1.728497 2.976197 -0.882257 3.326721 0 3.326721 
z
" id="mf16d18b464" style="stroke:#952c2c;"/>
    </defs>
    <g clip-path="url(#p0e795693b0)">
     <use style="fill:#952c2c;stroke:#952c2c;" x="253.246678" xlink:href="#mf16d18b464" y="369.397044"/>
    </g>
   </g>
   <g id="PathCollection_67">
    <defs>
     <path d="M 0 3.233778 
C 0.857608 3.233778 1.680206 2.893046 2.286626 2.286626 
C 2.893046 1.680206 3.233778 0.857608 3.233778 0 
C 3.233778 -0.857608 2.893046 -1.680206 2.286626 -2.286626 
C 1.680206 -2.893046 0.857608 -3.233778 0 -3.233778 
C -0.857608 -3.233778 -1.680206 -2.893046 -2.286626 -2.286626 
C -2.893046 -1.680206 -3.233778 -0.857608 -3.233778 0 
C -3.233778 0.857608 -2.893046 1.680206 -2.286626 2.286626 
C -1.680206 2.893046 -0.857608 3.233778 0 3.233778 
z
" id="m26f94e95de" style="stroke:#891313;"/>
    </defs>
    <g clip-path="url(#p0e795693b0)">
     <use style="fill:#891313;stroke:#891313;" x="190.813112" xlink:href="#m26f94e95de" y="298.564611"/>
    </g>
   </g>
   <g id="PathCollection_68">
    <defs>
     <path d="M 0 3.280578 
C 0.87002 3.280578 1.704523 2.934916 2.319719 2.319719 
C 2.934916 1.704523 3.280578 0.87002 3.280578 0 
C 3.280578 -0.87002 2.934916 -1.704523 2.319719 -2.319719 
C 1.704523 -2.934916 0.87002 -3.280578 0 -3.280578 
C -0.87002 -3.280578 -1.704523 -2.934916 -2.319719 -2.319719 
C -2.934916 -1.704523 -3.280578 -0.87002 -3.280578 0 
C -3.280578 0.87002 -2.934916 1.704523 -2.319719 2.319719 
C -1.704523 2.934916 -0.87002 3.280578 0 3.280578 
z
" id="m7bb6268765" style="stroke:#8f1f1f;"/>
    </defs>
    <g clip-path="url(#p0e795693b0)">
     <use style="fill:#8f1f1f;stroke:#8f1f1f;" x="159.596329" xlink:href="#m7bb6268765" y="189.591639"/>
    </g>
   </g>
   <g id="PathCollection_69">
    <defs>
     <path d="M 0 3.372232 
C 0.894326 3.372232 1.752144 3.016913 2.384528 2.384528 
C 3.016913 1.752144 3.372232 0.894326 3.372232 0 
C 3.372232 -0.894326 3.016913 -1.752144 2.384528 -2.384528 
C 1.752144 -3.016913 0.894326 -3.372232 0 -3.372232 
C -0.894326 -3.372232 -1.752144 -3.016913 -2.384528 -2.384528 
C -3.016913 -1.752144 -3.372232 -0.894326 -3.372232 0 
C -3.372232 0.894326 -3.016913 1.752144 -2.384528 2.384528 
C -1.752144 3.016913 -0.894326 3.372232 0 3.372232 
z
" id="m2c2882ff13" style="stroke:#9b3838;"/>
    </defs>
    <g clip-path="url(#p0e795693b0)">
     <use style="fill:#9b3838;stroke:#9b3838;" x="97.162762" xlink:href="#m2c2882ff13" y="227.732179"/>
    </g>
   </g>
   <g id="PathCollection_70">
    <defs>
     <path d="M 0 3.349554 
C 0.888312 3.349554 1.740361 2.996624 2.368492 2.368492 
C 2.996624 1.740361 3.349554 0.888312 3.349554 0 
C 3.349554 -0.888312 2.996624 -1.740361 2.368492 -2.368492 
C 1.740361 -2.996624 0.888312 -3.349554 0 -3.349554 
C -0.888312 -3.349554 -1.740361 -2.996624 -2.368492 -2.368492 
C -2.996624 -1.740361 -3.349554 -0.888312 -3.349554 0 
C -3.349554 0.888312 -2.996624 1.740361 -2.368492 2.368492 
C -1.740361 2.996624 -0.888312 3.349554 0 3.349554 
z
" id="med3e979a0b" style="stroke:#983232;"/>
    </defs>
    <g clip-path="url(#p0e795693b0)">
     <use style="fill:#983232;stroke:#983232;" x="222.029895" xlink:href="#med3e979a0b" y="434.780828"/>
    </g>
   </g>
   <g id="PathCollection_71">
    <defs>
     <path d="M 0 3.210121 
C 0.851334 3.210121 1.667914 2.871883 2.269898 2.269898 
C 2.871883 1.667914 3.210121 0.851334 3.210121 0 
C 3.210121 -0.851334 2.871883 -1.667914 2.269898 -2.269898 
C 1.667914 -2.871883 0.851334 -3.210121 0 -3.210121 
C -0.851334 -3.210121 -1.667914 -2.871883 -2.269898 -2.269898 
C -2.871883 -1.667914 -3.210121 -0.851334 -3.210121 0 
C -3.210121 0.851334 -2.871883 1.667914 -2.269898 2.269898 
C -1.667914 2.871883 -0.851334 3.210121 0 3.210121 
z
" id="m2a9116b2b1" style="stroke:#860c0c;"/>
    </defs>
    <g clip-path="url(#p0e795693b0)">
     <use style="fill:#860c0c;stroke:#860c0c;" x="65.945979" xlink:href="#m2a9116b2b1" y="298.564611"/>
    </g>
   </g>
   <g id="PathCollection_72">
    <g clip-path="url(#p0e795693b0)">
     <use style="fill:#9b3838;stroke:#9b3838;" x="315.680245" xlink:href="#m2c2882ff13" y="107.861909"/>
    </g>
   </g>
   <g id="PathCollection_73">
    <g clip-path="url(#p0e795693b0)">
     <use style="fill:#891313;stroke:#891313;" x="440.547378" xlink:href="#m26f94e95de" y="271.321368"/>
    </g>
   </g>
   <g id="PathCollection_74">
    <defs>
     <path d="M 0 3.30373 
C 0.87616 3.30373 1.716552 2.955628 2.33609 2.33609 
C 2.955628 1.716552 3.30373 0.87616 3.30373 0 
C 3.30373 -0.87616 2.955628 -1.716552 2.33609 -2.33609 
C 1.716552 -2.955628 0.87616 -3.30373 0 -3.30373 
C -0.87616 -3.30373 -1.716552 -2.955628 -2.33609 -2.33609 
C -2.955628 -1.716552 -3.30373 -0.87616 -3.30373 0 
C -3.30373 0.87616 -2.955628 1.716552 -2.33609 2.33609 
C -1.716552 2.955628 -0.87616 3.30373 0 3.30373 
z
" id="m5dde3d136b" style="stroke:#922525;"/>
    </defs>
    <g clip-path="url(#p0e795693b0)">
     <use style="fill:#922525;stroke:#922525;" x="440.547378" xlink:href="#m5dde3d136b" y="353.051098"/>
    </g>
   </g>
   <g id="PathCollection_75">
    <g clip-path="url(#p0e795693b0)">
     <use style="fill:#9b3838;stroke:#9b3838;" x="434.304021" xlink:href="#m2c2882ff13" y="233.180828"/>
    </g>
   </g>
   <g id="PathCollection_76">
    <g clip-path="url(#p0e795693b0)">
     <use style="fill:#983232;stroke:#983232;" x="428.060664" xlink:href="#med3e979a0b" y="107.861909"/>
    </g>
   </g>
   <g id="PathCollection_77">
    <g clip-path="url(#p0e795693b0)">
     <use style="fill:#8f1f1f;stroke:#8f1f1f;" x="47.215909" xlink:href="#m7bb6268765" y="135.105152"/>
    </g>
   </g>
   <g id="PathCollection_78">
    <g clip-path="url(#p0e795693b0)">
     <use style="fill:#983232;stroke:#983232;" x="159.596329" xlink:href="#med3e979a0b" y="353.051098"/>
    </g>
   </g>
   <g id="PathCollection_79">
    <g clip-path="url(#p0e795693b0)">
     <use style="fill:#9b3838;stroke:#9b3838;" x="284.463462" xlink:href="#m2c2882ff13" y="325.807855"/>
    </g>
   </g>
   <g id="PathCollection_80">
    <g clip-path="url(#p0e795693b0)">
     <use style="fill:#8f1f1f;stroke:#8f1f1f;" x="296.950175" xlink:href="#m7bb6268765" y="423.88353"/>
    </g>
   </g>
   <g id="PathCollection_81">
    <g clip-path="url(#p0e795693b0)">
     <use style="fill:#8f1f1f;stroke:#8f1f1f;" x="184.569755" xlink:href="#m7bb6268765" y="396.640287"/>
    </g>
   </g>
   <g id="PathCollection_82">
    <g clip-path="url(#p0e795693b0)">
     <use style="fill:#952c2c;stroke:#952c2c;" x="178.326399" xlink:href="#mf16d18b464" y="445.678125"/>
    </g>
   </g>
   <g id="PathCollection_83">
    <defs>
     <path d="M 0 3.186289 
C 0.845014 3.186289 1.655532 2.850562 2.253047 2.253047 
C 2.850562 1.655532 3.186289 0.845014 3.186289 0 
C 3.186289 -0.845014 2.850562 -1.655532 2.253047 -2.253047 
C 1.655532 -2.850562 0.845014 -3.186289 0 -3.186289 
C -0.845014 -3.186289 -1.655532 -2.850562 -2.253047 -2.253047 
C -2.850562 -1.655532 -3.186289 -0.845014 -3.186289 0 
C -3.186289 0.845014 -2.850562 1.655532 -2.253047 2.253047 
C -1.655532 2.850562 -0.845014 3.186289 0 3.186289 
z
" id="m21acce4e2d" style="stroke:#830606;"/>
    </defs>
    <g clip-path="url(#p0e795693b0)">
     <use style="fill:#830606;stroke:#830606;" x="47.215909" xlink:href="#m21acce4e2d" y="200.488936"/>
    </g>
   </g>
   <g id="PathCollection_84">
    <g clip-path="url(#p0e795693b0)">
     <use style="fill:#9f3e3e;stroke:#9f3e3e;" x="340.653671" xlink:href="#m32d98c6b5c" y="146.002449"/>
    </g>
   </g>
   <g id="PathCollection_85">
    <g clip-path="url(#p0e795693b0)">
     <use style="fill:#9b3838;stroke:#9b3838;" x="203.299825" xlink:href="#m2c2882ff13" y="227.732179"/>
    </g>
   </g>
   <g id="PathCollection_86">
    <g clip-path="url(#p0e795693b0)">
     <use style="fill:#860c0c;stroke:#860c0c;" x="428.060664" xlink:href="#m2a9116b2b1" y="336.705152"/>
    </g>
   </g>
   <g id="PathCollection_87">
    <g clip-path="url(#p0e795693b0)">
     <use style="fill:#922525;stroke:#922525;" x="365.627098" xlink:href="#m5dde3d136b" y="396.640287"/>
    </g>
   </g>
   <g id="PathCollection_88">
    <g clip-path="url(#p0e795693b0)">
     <use style="fill:#952c2c;stroke:#952c2c;" x="234.516608" xlink:href="#mf16d18b464" y="396.640287"/>
    </g>
   </g>
   <g id="PathCollection_89">
    <g clip-path="url(#p0e795693b0)">
     <use style="fill:#891313;stroke:#891313;" x="140.866259" xlink:href="#m26f94e95de" y="276.770017"/>
    </g>
   </g>
   <g id="PathCollection_90">
    <g clip-path="url(#p0e795693b0)">
     <use style="fill:#9f3e3e;stroke:#9f3e3e;" x="203.299825" xlink:href="#m32d98c6b5c" y="86.067314"/>
    </g>
   </g>
   <g id="PathCollection_91">
    <g clip-path="url(#p0e795693b0)">
     <use style="fill:#9b3838;stroke:#9b3838;" x="128.379545" xlink:href="#m2c2882ff13" y="42.478125"/>
    </g>
   </g>
   <g id="PathCollection_92">
    <g clip-path="url(#p0e795693b0)">
     <use style="fill:#922525;stroke:#922525;" x="265.733392" xlink:href="#m5dde3d136b" y="205.937584"/>
    </g>
   </g>
   <g id="PathCollection_93">
    <g clip-path="url(#p0e795693b0)">
     <use style="fill:#8f1f1f;stroke:#8f1f1f;" x="265.733392" xlink:href="#m7bb6268765" y="156.899747"/>
    </g>
   </g>
   <g id="PathCollection_94">
    <g clip-path="url(#p0e795693b0)">
     <use style="fill:#9b3838;stroke:#9b3838;" x="309.436888" xlink:href="#m2c2882ff13" y="369.397044"/>
    </g>
   </g>
   <g id="PathCollection_95">
    <g clip-path="url(#p0e795693b0)">
     <use style="fill:#983232;stroke:#983232;" x="321.923601" xlink:href="#med3e979a0b" y="391.191639"/>
    </g>
   </g>
   <g id="PathCollection_96">
    <g clip-path="url(#p0e795693b0)">
     <use style="fill:#891313;stroke:#891313;" x="415.573951" xlink:href="#m26f94e95de" y="178.694341"/>
    </g>
   </g>
   <g id="PathCollection_97">
    <g clip-path="url(#p0e795693b0)">
     <use style="fill:#922525;stroke:#922525;" x="384.357168" xlink:href="#m5dde3d136b" y="260.424071"/>
    </g>
   </g>
   <g id="PathCollection_98">
    <g clip-path="url(#p0e795693b0)">
     <use style="fill:#952c2c;stroke:#952c2c;" x="103.406119" xlink:href="#mf16d18b464" y="293.115963"/>
    </g>
   </g>
   <g id="PathCollection_99">
    <g clip-path="url(#p0e795693b0)">
     <use style="fill:#9b3838;stroke:#9b3838;" x="197.056469" xlink:href="#m2c2882ff13" y="178.694341"/>
    </g>
   </g>
   <g id="PathCollection_100">
    <g clip-path="url(#p0e795693b0)">
     <use style="fill:#891313;stroke:#891313;" x="228.273252" xlink:href="#m26f94e95de" y="96.964611"/>
    </g>
   </g>
   <g id="PathCollection_101">
    <g clip-path="url(#p0e795693b0)">
     <use style="fill:#830606;stroke:#830606;" x="128.379545" xlink:href="#m21acce4e2d" y="358.499747"/>
    </g>
   </g>
   <g id="PathCollection_102">
    <g clip-path="url(#p0e795693b0)">
     <use style="fill:#860c0c;stroke:#860c0c;" x="172.083042" xlink:href="#m2a9116b2b1" y="342.153801"/>
    </g>
   </g>
   <g id="PathCollection_103">
    <g clip-path="url(#p0e795693b0)">
     <use style="fill:#9f3e3e;stroke:#9f3e3e;" x="153.352972" xlink:href="#m32d98c6b5c" y="347.602449"/>
    </g>
   </g>
   <g id="PathCollection_104">
    <g clip-path="url(#p0e795693b0)">
     <use style="fill:#9b3838;stroke:#9b3838;" x="159.596329" xlink:href="#m2c2882ff13" y="320.359206"/>
    </g>
   </g>
   <g id="PathCollection_105"/>
   <g id="matplotlib.axis_1">
    <g id="xtick_1">
     <g id="line2d_1">
      <defs>
       <path d="M 0 0 
L 0 3.5 
" id="m454981aa8c" style="stroke:#000000;stroke-width:0.8;"/>
      </defs>
      <g>
       <use style="stroke:#000000;stroke-width:0.8;" x="34.729196" xlink:href="#m454981aa8c" y="465.838125"/>
      </g>
     </g>
     <g id="text_1">
      <!-- 0 -->
      <g transform="translate(31.547946 480.436562)scale(0.1 -0.1)">
       <defs>
        <path d="M 2034 4250 
Q 1547 4250 1301 3770 
Q 1056 3291 1056 2328 
Q 1056 1369 1301 889 
Q 1547 409 2034 409 
Q 2525 409 2770 889 
Q 3016 1369 3016 2328 
Q 3016 3291 2770 3770 
Q 2525 4250 2034 4250 
z
M 2034 4750 
Q 2819 4750 3233 4129 
Q 3647 3509 3647 2328 
Q 3647 1150 3233 529 
Q 2819 -91 2034 -91 
Q 1250 -91 836 529 
Q 422 1150 422 2328 
Q 422 3509 836 4129 
Q 1250 4750 2034 4750 
z
" id="DejaVuSans-30" transform="scale(0.015625)"/>
       </defs>
       <use xlink:href="#DejaVuSans-30"/>
      </g>
     </g>
    </g>
    <g id="xtick_2">
     <g id="line2d_2">
      <g>
       <use style="stroke:#000000;stroke-width:0.8;" x="97.162762" xlink:href="#m454981aa8c" y="465.838125"/>
      </g>
     </g>
     <g id="text_2">
      <!-- 10 -->
      <g transform="translate(90.800262 480.436562)scale(0.1 -0.1)">
       <defs>
        <path d="M 794 531 
L 1825 531 
L 1825 4091 
L 703 3866 
L 703 4441 
L 1819 4666 
L 2450 4666 
L 2450 531 
L 3481 531 
L 3481 0 
L 794 0 
L 794 531 
z
" id="DejaVuSans-31" transform="scale(0.015625)"/>
       </defs>
       <use xlink:href="#DejaVuSans-31"/>
       <use x="63.623047" xlink:href="#DejaVuSans-30"/>
      </g>
     </g>
    </g>
    <g id="xtick_3">
     <g id="line2d_3">
      <g>
       <use style="stroke:#000000;stroke-width:0.8;" x="159.596329" xlink:href="#m454981aa8c" y="465.838125"/>
      </g>
     </g>
     <g id="text_3">
      <!-- 20 -->
      <g transform="translate(153.233829 480.436562)scale(0.1 -0.1)">
       <defs>
        <path d="M 1228 531 
L 3431 531 
L 3431 0 
L 469 0 
L 469 531 
Q 828 903 1448 1529 
Q 2069 2156 2228 2338 
Q 2531 2678 2651 2914 
Q 2772 3150 2772 3378 
Q 2772 3750 2511 3984 
Q 2250 4219 1831 4219 
Q 1534 4219 1204 4116 
Q 875 4013 500 3803 
L 500 4441 
Q 881 4594 1212 4672 
Q 1544 4750 1819 4750 
Q 2544 4750 2975 4387 
Q 3406 4025 3406 3419 
Q 3406 3131 3298 2873 
Q 3191 2616 2906 2266 
Q 2828 2175 2409 1742 
Q 1991 1309 1228 531 
z
" id="DejaVuSans-32" transform="scale(0.015625)"/>
       </defs>
       <use xlink:href="#DejaVuSans-32"/>
       <use x="63.623047" xlink:href="#DejaVuSans-30"/>
      </g>
     </g>
    </g>
    <g id="xtick_4">
     <g id="line2d_4">
      <g>
       <use style="stroke:#000000;stroke-width:0.8;" x="222.029895" xlink:href="#m454981aa8c" y="465.838125"/>
      </g>
     </g>
     <g id="text_4">
      <!-- 30 -->
      <g transform="translate(215.667395 480.436562)scale(0.1 -0.1)">
       <defs>
        <path d="M 2597 2516 
Q 3050 2419 3304 2112 
Q 3559 1806 3559 1356 
Q 3559 666 3084 287 
Q 2609 -91 1734 -91 
Q 1441 -91 1130 -33 
Q 819 25 488 141 
L 488 750 
Q 750 597 1062 519 
Q 1375 441 1716 441 
Q 2309 441 2620 675 
Q 2931 909 2931 1356 
Q 2931 1769 2642 2001 
Q 2353 2234 1838 2234 
L 1294 2234 
L 1294 2753 
L 1863 2753 
Q 2328 2753 2575 2939 
Q 2822 3125 2822 3475 
Q 2822 3834 2567 4026 
Q 2313 4219 1838 4219 
Q 1578 4219 1281 4162 
Q 984 4106 628 3988 
L 628 4550 
Q 988 4650 1302 4700 
Q 1616 4750 1894 4750 
Q 2613 4750 3031 4423 
Q 3450 4097 3450 3541 
Q 3450 3153 3228 2886 
Q 3006 2619 2597 2516 
z
" id="DejaVuSans-33" transform="scale(0.015625)"/>
       </defs>
       <use xlink:href="#DejaVuSans-33"/>
       <use x="63.623047" xlink:href="#DejaVuSans-30"/>
      </g>
     </g>
    </g>
    <g id="xtick_5">
     <g id="line2d_5">
      <g>
       <use style="stroke:#000000;stroke-width:0.8;" x="284.463462" xlink:href="#m454981aa8c" y="465.838125"/>
      </g>
     </g>
     <g id="text_5">
      <!-- 40 -->
      <g transform="translate(278.100962 480.436562)scale(0.1 -0.1)">
       <defs>
        <path d="M 2419 4116 
L 825 1625 
L 2419 1625 
L 2419 4116 
z
M 2253 4666 
L 3047 4666 
L 3047 1625 
L 3713 1625 
L 3713 1100 
L 3047 1100 
L 3047 0 
L 2419 0 
L 2419 1100 
L 313 1100 
L 313 1709 
L 2253 4666 
z
" id="DejaVuSans-34" transform="scale(0.015625)"/>
       </defs>
       <use xlink:href="#DejaVuSans-34"/>
       <use x="63.623047" xlink:href="#DejaVuSans-30"/>
      </g>
     </g>
    </g>
    <g id="xtick_6">
     <g id="line2d_6">
      <g>
       <use style="stroke:#000000;stroke-width:0.8;" x="346.897028" xlink:href="#m454981aa8c" y="465.838125"/>
      </g>
     </g>
     <g id="text_6">
      <!-- 50 -->
      <g transform="translate(340.534528 480.436562)scale(0.1 -0.1)">
       <defs>
        <path d="M 691 4666 
L 3169 4666 
L 3169 4134 
L 1269 4134 
L 1269 2991 
Q 1406 3038 1543 3061 
Q 1681 3084 1819 3084 
Q 2600 3084 3056 2656 
Q 3513 2228 3513 1497 
Q 3513 744 3044 326 
Q 2575 -91 1722 -91 
Q 1428 -91 1123 -41 
Q 819 9 494 109 
L 494 744 
Q 775 591 1075 516 
Q 1375 441 1709 441 
Q 2250 441 2565 725 
Q 2881 1009 2881 1497 
Q 2881 1984 2565 2268 
Q 2250 2553 1709 2553 
Q 1456 2553 1204 2497 
Q 953 2441 691 2322 
L 691 4666 
z
" id="DejaVuSans-35" transform="scale(0.015625)"/>
       </defs>
       <use xlink:href="#DejaVuSans-35"/>
       <use x="63.623047" xlink:href="#DejaVuSans-30"/>
      </g>
     </g>
    </g>
    <g id="xtick_7">
     <g id="line2d_7">
      <g>
       <use style="stroke:#000000;stroke-width:0.8;" x="409.330594" xlink:href="#m454981aa8c" y="465.838125"/>
      </g>
     </g>
     <g id="text_7">
      <!-- 60 -->
      <g transform="translate(402.968094 480.436562)scale(0.1 -0.1)">
       <defs>
        <path d="M 2113 2584 
Q 1688 2584 1439 2293 
Q 1191 2003 1191 1497 
Q 1191 994 1439 701 
Q 1688 409 2113 409 
Q 2538 409 2786 701 
Q 3034 994 3034 1497 
Q 3034 2003 2786 2293 
Q 2538 2584 2113 2584 
z
M 3366 4563 
L 3366 3988 
Q 3128 4100 2886 4159 
Q 2644 4219 2406 4219 
Q 1781 4219 1451 3797 
Q 1122 3375 1075 2522 
Q 1259 2794 1537 2939 
Q 1816 3084 2150 3084 
Q 2853 3084 3261 2657 
Q 3669 2231 3669 1497 
Q 3669 778 3244 343 
Q 2819 -91 2113 -91 
Q 1303 -91 875 529 
Q 447 1150 447 2328 
Q 447 3434 972 4092 
Q 1497 4750 2381 4750 
Q 2619 4750 2861 4703 
Q 3103 4656 3366 4563 
z
" id="DejaVuSans-36" transform="scale(0.015625)"/>
       </defs>
       <use xlink:href="#DejaVuSans-36"/>
       <use x="63.623047" xlink:href="#DejaVuSans-30"/>
      </g>
     </g>
    </g>
    <g id="xtick_8">
     <g id="line2d_8">
      <g>
       <use style="stroke:#000000;stroke-width:0.8;" x="471.764161" xlink:href="#m454981aa8c" y="465.838125"/>
      </g>
     </g>
     <g id="text_8">
      <!-- 70 -->
      <g transform="translate(465.401661 480.436562)scale(0.1 -0.1)">
       <defs>
        <path d="M 525 4666 
L 3525 4666 
L 3525 4397 
L 1831 0 
L 1172 0 
L 2766 4134 
L 525 4134 
L 525 4666 
z
" id="DejaVuSans-37" transform="scale(0.015625)"/>
       </defs>
       <use xlink:href="#DejaVuSans-37"/>
       <use x="63.623047" xlink:href="#DejaVuSans-30"/>
      </g>
     </g>
    </g>
   </g>
   <g id="matplotlib.axis_2">
    <g id="ytick_1">
     <g id="line2d_9">
      <defs>
       <path d="M 0 0 
L -3.5 0 
" id="mb5ae47d2c9" style="stroke:#000000;stroke-width:0.8;"/>
      </defs>
      <g>
       <use style="stroke:#000000;stroke-width:0.8;" x="26.925" xlink:href="#mb5ae47d2c9" y="462.024071"/>
      </g>
     </g>
     <g id="text_9">
      <!-- 0 -->
      <g transform="translate(13.5625 465.82329)scale(0.1 -0.1)">
       <use xlink:href="#DejaVuSans-30"/>
      </g>
     </g>
    </g>
    <g id="ytick_2">
     <g id="line2d_10">
      <g>
       <use style="stroke:#000000;stroke-width:0.8;" x="26.925" xlink:href="#mb5ae47d2c9" y="407.537584"/>
      </g>
     </g>
     <g id="text_10">
      <!-- 10 -->
      <g transform="translate(7.2 411.336803)scale(0.1 -0.1)">
       <use xlink:href="#DejaVuSans-31"/>
       <use x="63.623047" xlink:href="#DejaVuSans-30"/>
      </g>
     </g>
    </g>
    <g id="ytick_3">
     <g id="line2d_11">
      <g>
       <use style="stroke:#000000;stroke-width:0.8;" x="26.925" xlink:href="#mb5ae47d2c9" y="353.051098"/>
      </g>
     </g>
     <g id="text_11">
      <!-- 20 -->
      <g transform="translate(7.2 356.850317)scale(0.1 -0.1)">
       <use xlink:href="#DejaVuSans-32"/>
       <use x="63.623047" xlink:href="#DejaVuSans-30"/>
      </g>
     </g>
    </g>
    <g id="ytick_4">
     <g id="line2d_12">
      <g>
       <use style="stroke:#000000;stroke-width:0.8;" x="26.925" xlink:href="#mb5ae47d2c9" y="298.564611"/>
      </g>
     </g>
     <g id="text_12">
      <!-- 30 -->
      <g transform="translate(7.2 302.36383)scale(0.1 -0.1)">
       <use xlink:href="#DejaVuSans-33"/>
       <use x="63.623047" xlink:href="#DejaVuSans-30"/>
      </g>
     </g>
    </g>
    <g id="ytick_5">
     <g id="line2d_13">
      <g>
       <use style="stroke:#000000;stroke-width:0.8;" x="26.925" xlink:href="#mb5ae47d2c9" y="244.078125"/>
      </g>
     </g>
     <g id="text_13">
      <!-- 40 -->
      <g transform="translate(7.2 247.877344)scale(0.1 -0.1)">
       <use xlink:href="#DejaVuSans-34"/>
       <use x="63.623047" xlink:href="#DejaVuSans-30"/>
      </g>
     </g>
    </g>
    <g id="ytick_6">
     <g id="line2d_14">
      <g>
       <use style="stroke:#000000;stroke-width:0.8;" x="26.925" xlink:href="#mb5ae47d2c9" y="189.591639"/>
      </g>
     </g>
     <g id="text_14">
      <!-- 50 -->
      <g transform="translate(7.2 193.390857)scale(0.1 -0.1)">
       <use xlink:href="#DejaVuSans-35"/>
       <use x="63.623047" xlink:href="#DejaVuSans-30"/>
      </g>
     </g>
    </g>
    <g id="ytick_7">
     <g id="line2d_15">
      <g>
       <use style="stroke:#000000;stroke-width:0.8;" x="26.925" xlink:href="#mb5ae47d2c9" y="135.105152"/>
      </g>
     </g>
     <g id="text_15">
      <!-- 60 -->
      <g transform="translate(7.2 138.904371)scale(0.1 -0.1)">
       <use xlink:href="#DejaVuSans-36"/>
       <use x="63.623047" xlink:href="#DejaVuSans-30"/>
      </g>
     </g>
    </g>
    <g id="ytick_8">
     <g id="line2d_16">
      <g>
       <use style="stroke:#000000;stroke-width:0.8;" x="26.925" xlink:href="#mb5ae47d2c9" y="80.618666"/>
      </g>
     </g>
     <g id="text_16">
      <!-- 70 -->
      <g transform="translate(7.2 84.417884)scale(0.1 -0.1)">
       <use xlink:href="#DejaVuSans-37"/>
       <use x="63.623047" xlink:href="#DejaVuSans-30"/>
      </g>
     </g>
    </g>
    <g id="ytick_9">
     <g id="line2d_17">
      <g>
       <use style="stroke:#000000;stroke-width:0.8;" x="26.925" xlink:href="#mb5ae47d2c9" y="26.132179"/>
      </g>
     </g>
     <g id="text_17">
      <!-- 80 -->
      <g transform="translate(7.2 29.931398)scale(0.1 -0.1)">
       <defs>
        <path d="M 2034 2216 
Q 1584 2216 1326 1975 
Q 1069 1734 1069 1313 
Q 1069 891 1326 650 
Q 1584 409 2034 409 
Q 2484 409 2743 651 
Q 3003 894 3003 1313 
Q 3003 1734 2745 1975 
Q 2488 2216 2034 2216 
z
M 1403 2484 
Q 997 2584 770 2862 
Q 544 3141 544 3541 
Q 544 4100 942 4425 
Q 1341 4750 2034 4750 
Q 2731 4750 3128 4425 
Q 3525 4100 3525 3541 
Q 3525 3141 3298 2862 
Q 3072 2584 2669 2484 
Q 3125 2378 3379 2068 
Q 3634 1759 3634 1313 
Q 3634 634 3220 271 
Q 2806 -91 2034 -91 
Q 1263 -91 848 271 
Q 434 634 434 1313 
Q 434 1759 690 2068 
Q 947 2378 1403 2484 
z
M 1172 3481 
Q 1172 3119 1398 2916 
Q 1625 2713 2034 2713 
Q 2441 2713 2670 2916 
Q 2900 3119 2900 3481 
Q 2900 3844 2670 4047 
Q 2441 4250 2034 4250 
Q 1625 4250 1398 4047 
Q 1172 3844 1172 3481 
z
" id="DejaVuSans-38" transform="scale(0.015625)"/>
       </defs>
       <use xlink:href="#DejaVuSans-38"/>
       <use x="63.623047" xlink:href="#DejaVuSans-30"/>
      </g>
     </g>
    </g>
   </g>
   <g id="line2d_18">
    <path clip-path="url(#p0e795693b0)" d="M 253.246678 271.321368 
L 197.056469 314.910557 
L 172.083042 314.910557 
L 159.596329 320.359206 
L 165.839685 331.256503 
L 165.839685 331.256503 
" style="fill:none;stroke:#0000ff;stroke-linecap:square;stroke-width:1.5;"/>
   </g>
   <g id="line2d_19">
    <path clip-path="url(#p0e795693b0)" d="M 165.839685 331.256503 
L 190.813112 331.256503 
L 222.029895 325.807855 
L 265.733392 293.115963 
L 253.246678 271.321368 
" style="fill:none;stroke:#5500aa;stroke-linecap:square;stroke-width:1.5;"/>
   </g>
   <g id="line2d_20">
    <path clip-path="url(#p0e795693b0)" d="M 253.246678 271.321368 
L 253.246678 244.078125 
L 253.246678 271.321368 
" style="fill:none;stroke:#aa0055;stroke-linecap:square;stroke-width:1.5;"/>
   </g>
   <g id="patch_3">
    <path d="M 26.925 465.838125 
L 26.925 22.318125 
" style="fill:none;stroke:#000000;stroke-linecap:square;stroke-linejoin:miter;stroke-width:0.8;"/>
   </g>
   <g id="patch_4">
    <path d="M 473.325 465.838125 
L 473.325 22.318125 
" style="fill:none;stroke:#000000;stroke-linecap:square;stroke-linejoin:miter;stroke-width:0.8;"/>
   </g>
   <g id="patch_5">
    <path d="M 26.925 465.838125 
L 473.325 465.838125 
" style="fill:none;stroke:#000000;stroke-linecap:square;stroke-linejoin:miter;stroke-width:0.8;"/>
   </g>
   <g id="patch_6">
    <path d="M 26.925 22.318125 
L 473.325 22.318125 
" style="fill:none;stroke:#000000;stroke-linecap:square;stroke-linejoin:miter;stroke-width:0.8;"/>
   </g>
   <g id="text_18">
    <!-- SET1 2-3/102-60-2-3 - Score: 148.0 -->
    <g transform="translate(144.211875 16.318125)scale(0.12 -0.12)">
     <defs>
      <path d="M 3425 4513 
L 3425 3897 
Q 3066 4069 2747 4153 
Q 2428 4238 2131 4238 
Q 1616 4238 1336 4038 
Q 1056 3838 1056 3469 
Q 1056 3159 1242 3001 
Q 1428 2844 1947 2747 
L 2328 2669 
Q 3034 2534 3370 2195 
Q 3706 1856 3706 1288 
Q 3706 609 3251 259 
Q 2797 -91 1919 -91 
Q 1588 -91 1214 -16 
Q 841 59 441 206 
L 441 856 
Q 825 641 1194 531 
Q 1563 422 1919 422 
Q 2459 422 2753 634 
Q 3047 847 3047 1241 
Q 3047 1584 2836 1778 
Q 2625 1972 2144 2069 
L 1759 2144 
Q 1053 2284 737 2584 
Q 422 2884 422 3419 
Q 422 4038 858 4394 
Q 1294 4750 2059 4750 
Q 2388 4750 2728 4690 
Q 3069 4631 3425 4513 
z
" id="DejaVuSans-53" transform="scale(0.015625)"/>
      <path d="M 628 4666 
L 3578 4666 
L 3578 4134 
L 1259 4134 
L 1259 2753 
L 3481 2753 
L 3481 2222 
L 1259 2222 
L 1259 531 
L 3634 531 
L 3634 0 
L 628 0 
L 628 4666 
z
" id="DejaVuSans-45" transform="scale(0.015625)"/>
      <path d="M -19 4666 
L 3928 4666 
L 3928 4134 
L 2272 4134 
L 2272 0 
L 1638 0 
L 1638 4134 
L -19 4134 
L -19 4666 
z
" id="DejaVuSans-54" transform="scale(0.015625)"/>
      <path id="DejaVuSans-20" transform="scale(0.015625)"/>
      <path d="M 313 2009 
L 1997 2009 
L 1997 1497 
L 313 1497 
L 313 2009 
z
" id="DejaVuSans-2d" transform="scale(0.015625)"/>
      <path d="M 1625 4666 
L 2156 4666 
L 531 -594 
L 0 -594 
L 1625 4666 
z
" id="DejaVuSans-2f" transform="scale(0.015625)"/>
      <path d="M 3122 3366 
L 3122 2828 
Q 2878 2963 2633 3030 
Q 2388 3097 2138 3097 
Q 1578 3097 1268 2742 
Q 959 2388 959 1747 
Q 959 1106 1268 751 
Q 1578 397 2138 397 
Q 2388 397 2633 464 
Q 2878 531 3122 666 
L 3122 134 
Q 2881 22 2623 -34 
Q 2366 -91 2075 -91 
Q 1284 -91 818 406 
Q 353 903 353 1747 
Q 353 2603 823 3093 
Q 1294 3584 2113 3584 
Q 2378 3584 2631 3529 
Q 2884 3475 3122 3366 
z
" id="DejaVuSans-63" transform="scale(0.015625)"/>
      <path d="M 1959 3097 
Q 1497 3097 1228 2736 
Q 959 2375 959 1747 
Q 959 1119 1226 758 
Q 1494 397 1959 397 
Q 2419 397 2687 759 
Q 2956 1122 2956 1747 
Q 2956 2369 2687 2733 
Q 2419 3097 1959 3097 
z
M 1959 3584 
Q 2709 3584 3137 3096 
Q 3566 2609 3566 1747 
Q 3566 888 3137 398 
Q 2709 -91 1959 -91 
Q 1206 -91 779 398 
Q 353 888 353 1747 
Q 353 2609 779 3096 
Q 1206 3584 1959 3584 
z
" id="DejaVuSans-6f" transform="scale(0.015625)"/>
      <path d="M 2631 2963 
Q 2534 3019 2420 3045 
Q 2306 3072 2169 3072 
Q 1681 3072 1420 2755 
Q 1159 2438 1159 1844 
L 1159 0 
L 581 0 
L 581 3500 
L 1159 3500 
L 1159 2956 
Q 1341 3275 1631 3429 
Q 1922 3584 2338 3584 
Q 2397 3584 2469 3576 
Q 2541 3569 2628 3553 
L 2631 2963 
z
" id="DejaVuSans-72" transform="scale(0.015625)"/>
      <path d="M 3597 1894 
L 3597 1613 
L 953 1613 
Q 991 1019 1311 708 
Q 1631 397 2203 397 
Q 2534 397 2845 478 
Q 3156 559 3463 722 
L 3463 178 
Q 3153 47 2828 -22 
Q 2503 -91 2169 -91 
Q 1331 -91 842 396 
Q 353 884 353 1716 
Q 353 2575 817 3079 
Q 1281 3584 2069 3584 
Q 2775 3584 3186 3129 
Q 3597 2675 3597 1894 
z
M 3022 2063 
Q 3016 2534 2758 2815 
Q 2500 3097 2075 3097 
Q 1594 3097 1305 2825 
Q 1016 2553 972 2059 
L 3022 2063 
z
" id="DejaVuSans-65" transform="scale(0.015625)"/>
      <path d="M 750 794 
L 1409 794 
L 1409 0 
L 750 0 
L 750 794 
z
M 750 3309 
L 1409 3309 
L 1409 2516 
L 750 2516 
L 750 3309 
z
" id="DejaVuSans-3a" transform="scale(0.015625)"/>
      <path d="M 684 794 
L 1344 794 
L 1344 0 
L 684 0 
L 684 794 
z
" id="DejaVuSans-2e" transform="scale(0.015625)"/>
     </defs>
     <use xlink:href="#DejaVuSans-53"/>
     <use x="63.476562" xlink:href="#DejaVuSans-45"/>
     <use x="126.660156" xlink:href="#DejaVuSans-54"/>
     <use x="187.744141" xlink:href="#DejaVuSans-31"/>
     <use x="251.367188" xlink:href="#DejaVuSans-20"/>
     <use x="283.154297" xlink:href="#DejaVuSans-32"/>
     <use x="346.777344" xlink:href="#DejaVuSans-2d"/>
     <use x="382.861328" xlink:href="#DejaVuSans-33"/>
     <use x="446.484375" xlink:href="#DejaVuSans-2f"/>
     <use x="480.175781" xlink:href="#DejaVuSans-31"/>
     <use x="543.798828" xlink:href="#DejaVuSans-30"/>
     <use x="607.421875" xlink:href="#DejaVuSans-32"/>
     <use x="671.044922" xlink:href="#DejaVuSans-2d"/>
     <use x="707.128906" xlink:href="#DejaVuSans-36"/>
     <use x="770.751953" xlink:href="#DejaVuSans-30"/>
     <use x="834.375" xlink:href="#DejaVuSans-2d"/>
     <use x="870.458984" xlink:href="#DejaVuSans-32"/>
     <use x="934.082031" xlink:href="#DejaVuSans-2d"/>
     <use x="970.166016" xlink:href="#DejaVuSans-33"/>
     <use x="1033.789062" xlink:href="#DejaVuSans-20"/>
     <use x="1065.576172" xlink:href="#DejaVuSans-2d"/>
     <use x="1101.660156" xlink:href="#DejaVuSans-20"/>
     <use x="1133.447266" xlink:href="#DejaVuSans-53"/>
     <use x="1196.923828" xlink:href="#DejaVuSans-63"/>
     <use x="1251.904297" xlink:href="#DejaVuSans-6f"/>
     <use x="1313.085938" xlink:href="#DejaVuSans-72"/>
     <use x="1351.949219" xlink:href="#DejaVuSans-65"/>
     <use x="1413.472656" xlink:href="#DejaVuSans-3a"/>
     <use x="1447.164062" xlink:href="#DejaVuSans-20"/>
     <use x="1478.951172" xlink:href="#DejaVuSans-31"/>
     <use x="1542.574219" xlink:href="#DejaVuSans-34"/>
     <use x="1606.197266" xlink:href="#DejaVuSans-38"/>
     <use x="1669.820312" xlink:href="#DejaVuSans-2e"/>
     <use x="1701.607422" xlink:href="#DejaVuSans-30"/>
    </g>
   </g>
   <g id="legend_1">
    <g id="patch_7">
     <path d="M 194.428125 74.3525 
L 305.821875 74.3525 
Q 307.821875 74.3525 307.821875 72.3525 
L 307.821875 29.318125 
Q 307.821875 27.318125 305.821875 27.318125 
L 194.428125 27.318125 
Q 192.428125 27.318125 192.428125 29.318125 
L 192.428125 72.3525 
Q 192.428125 74.3525 194.428125 74.3525 
z
" style="fill:#ffffff;opacity:0.8;stroke:#cccccc;stroke-linejoin:miter;"/>
    </g>
    <g id="PathCollection_106">
     <defs>
      <path d="M 0 -5.59017 
L -1.255071 -1.727457 
L -5.316568 -1.727458 
L -2.030748 0.65983 
L -3.285819 4.522542 
L -0 2.135255 
L 3.285819 4.522542 
L 2.030748 0.65983 
L 5.316568 -1.727458 
L 1.255071 -1.727457 
z
" id="m2ea946d563" style="stroke:#0000ff;"/>
     </defs>
     <g>
      <use style="fill:#0000ff;stroke:#0000ff;" x="206.428125" xlink:href="#m2ea946d563" y="36.291562"/>
     </g>
    </g>
    <g id="text_19">
     <!-- Hotel Incio -->
     <g transform="translate(224.428125 38.916562)scale(0.1 -0.1)">
      <defs>
       <path d="M 628 4666 
L 1259 4666 
L 1259 2753 
L 3553 2753 
L 3553 4666 
L 4184 4666 
L 4184 0 
L 3553 0 
L 3553 2222 
L 1259 2222 
L 1259 0 
L 628 0 
L 628 4666 
z
" id="DejaVuSans-48" transform="scale(0.015625)"/>
       <path d="M 1172 4494 
L 1172 3500 
L 2356 3500 
L 2356 3053 
L 1172 3053 
L 1172 1153 
Q 1172 725 1289 603 
Q 1406 481 1766 481 
L 2356 481 
L 2356 0 
L 1766 0 
Q 1100 0 847 248 
Q 594 497 594 1153 
L 594 3053 
L 172 3053 
L 172 3500 
L 594 3500 
L 594 4494 
L 1172 4494 
z
" id="DejaVuSans-74" transform="scale(0.015625)"/>
       <path d="M 603 4863 
L 1178 4863 
L 1178 0 
L 603 0 
L 603 4863 
z
" id="DejaVuSans-6c" transform="scale(0.015625)"/>
       <path d="M 628 4666 
L 1259 4666 
L 1259 0 
L 628 0 
L 628 4666 
z
" id="DejaVuSans-49" transform="scale(0.015625)"/>
       <path d="M 3513 2113 
L 3513 0 
L 2938 0 
L 2938 2094 
Q 2938 2591 2744 2837 
Q 2550 3084 2163 3084 
Q 1697 3084 1428 2787 
Q 1159 2491 1159 1978 
L 1159 0 
L 581 0 
L 581 3500 
L 1159 3500 
L 1159 2956 
Q 1366 3272 1645 3428 
Q 1925 3584 2291 3584 
Q 2894 3584 3203 3211 
Q 3513 2838 3513 2113 
z
" id="DejaVuSans-6e" transform="scale(0.015625)"/>
       <path d="M 1322 5119 
L 1944 5119 
L 926 3944 
L 447 3944 
L 1322 5119 
z
M 603 3500 
L 1178 3500 
L 1178 0 
L 603 0 
L 603 3500 
z
M 891 3584 
L 891 3584 
z
" id="DejaVuSans-ed" transform="scale(0.015625)"/>
       <path d="M 603 3500 
L 1178 3500 
L 1178 0 
L 603 0 
L 603 3500 
z
M 603 4863 
L 1178 4863 
L 1178 4134 
L 603 4134 
L 603 4863 
z
" id="DejaVuSans-69" transform="scale(0.015625)"/>
      </defs>
      <use xlink:href="#DejaVuSans-48"/>
      <use x="75.195312" xlink:href="#DejaVuSans-6f"/>
      <use x="136.376953" xlink:href="#DejaVuSans-74"/>
      <use x="175.585938" xlink:href="#DejaVuSans-65"/>
      <use x="237.109375" xlink:href="#DejaVuSans-6c"/>
      <use x="264.892578" xlink:href="#DejaVuSans-20"/>
      <use x="296.679688" xlink:href="#DejaVuSans-49"/>
      <use x="326.171875" xlink:href="#DejaVuSans-6e"/>
      <use x="389.550781" xlink:href="#DejaVuSans-ed"/>
      <use x="417.333984" xlink:href="#DejaVuSans-63"/>
      <use x="472.314453" xlink:href="#DejaVuSans-69"/>
      <use x="500.097656" xlink:href="#DejaVuSans-6f"/>
     </g>
    </g>
    <g id="PathCollection_107">
     <defs>
      <path d="M -5.59017 5.59017 
L 5.59017 -5.59017 
M -5.59017 -5.59017 
L 5.59017 5.59017 
" id="m4ac6ff083a" style="stroke:#000000;stroke-width:1.5;"/>
     </defs>
     <g>
      <use style="stroke:#000000;stroke-width:1.5;" x="206.428125" xlink:href="#m4ac6ff083a" y="50.969687"/>
     </g>
    </g>
    <g id="text_20">
     <!-- Hotel Final -->
     <g transform="translate(224.428125 53.594687)scale(0.1 -0.1)">
      <defs>
       <path d="M 628 4666 
L 3309 4666 
L 3309 4134 
L 1259 4134 
L 1259 2759 
L 3109 2759 
L 3109 2228 
L 1259 2228 
L 1259 0 
L 628 0 
L 628 4666 
z
" id="DejaVuSans-46" transform="scale(0.015625)"/>
       <path d="M 2194 1759 
Q 1497 1759 1228 1600 
Q 959 1441 959 1056 
Q 959 750 1161 570 
Q 1363 391 1709 391 
Q 2188 391 2477 730 
Q 2766 1069 2766 1631 
L 2766 1759 
L 2194 1759 
z
M 3341 1997 
L 3341 0 
L 2766 0 
L 2766 531 
Q 2569 213 2275 61 
Q 1981 -91 1556 -91 
Q 1019 -91 701 211 
Q 384 513 384 1019 
Q 384 1609 779 1909 
Q 1175 2209 1959 2209 
L 2766 2209 
L 2766 2266 
Q 2766 2663 2505 2880 
Q 2244 3097 1772 3097 
Q 1472 3097 1187 3025 
Q 903 2953 641 2809 
L 641 3341 
Q 956 3463 1253 3523 
Q 1550 3584 1831 3584 
Q 2591 3584 2966 3190 
Q 3341 2797 3341 1997 
z
" id="DejaVuSans-61" transform="scale(0.015625)"/>
      </defs>
      <use xlink:href="#DejaVuSans-48"/>
      <use x="75.195312" xlink:href="#DejaVuSans-6f"/>
      <use x="136.376953" xlink:href="#DejaVuSans-74"/>
      <use x="175.585938" xlink:href="#DejaVuSans-65"/>
      <use x="237.109375" xlink:href="#DejaVuSans-6c"/>
      <use x="264.892578" xlink:href="#DejaVuSans-20"/>
      <use x="296.679688" xlink:href="#DejaVuSans-46"/>
      <use x="346.949219" xlink:href="#DejaVuSans-69"/>
      <use x="374.732422" xlink:href="#DejaVuSans-6e"/>
      <use x="438.111328" xlink:href="#DejaVuSans-61"/>
      <use x="499.390625" xlink:href="#DejaVuSans-6c"/>
     </g>
    </g>
    <g id="PathCollection_108">
     <defs>
      <path d="M 0 2.5 
C 0.663008 2.5 1.29895 2.236584 1.767767 1.767767 
C 2.236584 1.29895 2.5 0.663008 2.5 0 
C 2.5 -0.663008 2.236584 -1.29895 1.767767 -1.767767 
C 1.29895 -2.236584 0.663008 -2.5 0 -2.5 
C -0.663008 -2.5 -1.29895 -2.236584 -1.767767 -1.767767 
C -2.236584 -1.29895 -2.5 -0.663008 -2.5 0 
C -2.5 0.663008 -2.236584 1.29895 -1.767767 1.767767 
C -1.29895 2.236584 -0.663008 2.5 0 2.5 
z
" id="m6c8f5df5a5" style="stroke:#ffff00;"/>
     </defs>
     <g>
      <use style="fill:#ffff00;stroke:#ffff00;" x="206.428125" xlink:href="#m6c8f5df5a5" y="65.647812"/>
     </g>
    </g>
    <g id="text_21">
     <!-- Hotis Extras: 2 -->
     <g transform="translate(224.428125 68.272812)scale(0.1 -0.1)">
      <defs>
       <path d="M 3597 1894 
L 3597 1613 
L 953 1613 
Q 991 1019 1311 708 
Q 1631 397 2203 397 
Q 2534 397 2845 478 
Q 3156 559 3463 722 
L 3463 178 
Q 3153 47 2828 -22 
Q 2503 -91 2169 -91 
Q 1331 -91 842 396 
Q 353 884 353 1716 
Q 353 2575 817 3079 
Q 1281 3584 2069 3584 
Q 2775 3584 3186 3129 
Q 3597 2675 3597 1894 
z
M 3022 2063 
Q 3016 2534 2758 2815 
Q 2500 3097 2075 3097 
Q 1594 3097 1305 2825 
Q 1016 2553 972 2059 
L 3022 2063 
z
M 2466 5119 
L 3088 5119 
L 2070 3944 
L 1591 3944 
L 2466 5119 
z
" id="DejaVuSans-e9" transform="scale(0.015625)"/>
       <path d="M 2834 3397 
L 2834 2853 
Q 2591 2978 2328 3040 
Q 2066 3103 1784 3103 
Q 1356 3103 1142 2972 
Q 928 2841 928 2578 
Q 928 2378 1081 2264 
Q 1234 2150 1697 2047 
L 1894 2003 
Q 2506 1872 2764 1633 
Q 3022 1394 3022 966 
Q 3022 478 2636 193 
Q 2250 -91 1575 -91 
Q 1294 -91 989 -36 
Q 684 19 347 128 
L 347 722 
Q 666 556 975 473 
Q 1284 391 1588 391 
Q 1994 391 2212 530 
Q 2431 669 2431 922 
Q 2431 1156 2273 1281 
Q 2116 1406 1581 1522 
L 1381 1569 
Q 847 1681 609 1914 
Q 372 2147 372 2553 
Q 372 3047 722 3315 
Q 1072 3584 1716 3584 
Q 2034 3584 2315 3537 
Q 2597 3491 2834 3397 
z
" id="DejaVuSans-73" transform="scale(0.015625)"/>
       <path d="M 3513 3500 
L 2247 1797 
L 3578 0 
L 2900 0 
L 1881 1375 
L 863 0 
L 184 0 
L 1544 1831 
L 300 3500 
L 978 3500 
L 1906 2253 
L 2834 3500 
L 3513 3500 
z
" id="DejaVuSans-78" transform="scale(0.015625)"/>
      </defs>
      <use xlink:href="#DejaVuSans-48"/>
      <use x="75.195312" xlink:href="#DejaVuSans-6f"/>
      <use x="136.376953" xlink:href="#DejaVuSans-74"/>
      <use x="175.585938" xlink:href="#DejaVuSans-e9"/>
      <use x="237.109375" xlink:href="#DejaVuSans-69"/>
      <use x="264.892578" xlink:href="#DejaVuSans-73"/>
      <use x="316.992188" xlink:href="#DejaVuSans-20"/>
      <use x="348.779297" xlink:href="#DejaVuSans-45"/>
      <use x="411.962891" xlink:href="#DejaVuSans-78"/>
      <use x="471.142578" xlink:href="#DejaVuSans-74"/>
      <use x="510.351562" xlink:href="#DejaVuSans-72"/>
      <use x="551.464844" xlink:href="#DejaVuSans-61"/>
      <use x="612.744141" xlink:href="#DejaVuSans-73"/>
      <use x="664.84375" xlink:href="#DejaVuSans-3a"/>
      <use x="698.535156" xlink:href="#DejaVuSans-20"/>
      <use x="730.322266" xlink:href="#DejaVuSans-32"/>
     </g>
    </g>
   </g>
  </g>
 </g>
 <defs>
  <clipPath id="p0e795693b0">
   <rect height="443.52" width="446.4" x="26.925" y="22.318125"/>
  </clipPath>
 </defs>
</svg>
