<?xml version="1.0" encoding="utf-8" standalone="no"?>
<!DOCTYPE svg PUBLIC "-//W3C//DTD SVG 1.1//EN"
  "http://www.w3.org/Graphics/SVG/1.1/DTD/svg11.dtd">
<svg height="489.71625pt" version="1.1" viewBox="0 0 482.542187 489.71625" width="482.542187pt" xmlns="http://www.w3.org/2000/svg" xmlns:xlink="http://www.w3.org/1999/xlink">
 <metadata>
  <rdf:RDF xmlns:cc="http://creativecommons.org/ns#" xmlns:dc="http://purl.org/dc/elements/1.1/" xmlns:rdf="http://www.w3.org/1999/02/22-rdf-syntax-ns#">
   <cc:Work>
    <dc:type rdf:resource="http://purl.org/dc/dcmitype/StillImage"/>
    <dc:date>2023-12-09T20:57:29.062150</dc:date>
    <dc:format>image/svg+xml</dc:format>
    <dc:creator>
     <cc:Agent>
      <dc:title>Matplotlib v3.4.3, https://matplotlib.org/</dc:title>
     </cc:Agent>
    </dc:creator>
   </cc:Work>
  </rdf:RDF>
 </metadata>
 <defs>
  <style type="text/css">*{stroke-linecap:butt;stroke-linejoin:round;}</style>
 </defs>
 <g id="figure_1">
  <g id="patch_1">
   <path d="M 0 489.71625 
L 482.542187 489.71625 
L 482.542187 0 
L 0 0 
z
" style="fill:#ffffff;"/>
  </g>
  <g id="axes_1">
   <g id="patch_2">
    <path d="M 28.942188 465.838125 
L 475.342187 465.838125 
L 475.342187 22.318125 
L 28.942188 22.318125 
z
" style="fill:#ffffff;"/>
   </g>
   <g id="PathCollection_1">
    <defs>
     <path d="M 0 -11.18034 
L -2.510143 -3.454915 
L -10.633135 -3.454915 
L -4.061496 1.31966 
L -6.571639 9.045085 
L -0 4.27051 
L 6.571639 9.045085 
L 4.061496 1.31966 
L 10.633135 -3.454915 
L 2.510143 -3.454915 
z
" id="mbd7405858d" style="stroke:#0000ff;"/>
    </defs>
    <g clip-path="url(#p10ee501f19)">
     <use style="fill:#0000ff;stroke:#0000ff;" x="237.648681" xlink:href="#mbd7405858d" y="244.078125"/>
    </g>
   </g>
   <g id="PathCollection_2">
    <defs>
     <path d="M -11.18034 11.18034 
L 11.18034 -11.18034 
M -11.18034 -11.18034 
L 11.18034 11.18034 
" id="m6e31eba4f6" style="stroke:#000000;stroke-width:1.5;"/>
    </defs>
    <g clip-path="url(#p10ee501f19)">
     <use style="stroke:#000000;stroke-width:1.5;" x="266.635694" xlink:href="#m6e31eba4f6" y="244.078125"/>
    </g>
   </g>
   <g id="PathCollection_3">
    <defs>
     <path d="M 0 5 
C 1.326016 5 2.597899 4.473168 3.535534 3.535534 
C 4.473168 2.597899 5 1.326016 5 0 
C 5 -1.326016 4.473168 -2.597899 3.535534 -3.535534 
C 2.597899 -4.473168 1.326016 -5 0 -5 
C -1.326016 -5 -2.597899 -4.473168 -3.535534 -3.535534 
C -4.473168 -2.597899 -5 -1.326016 -5 0 
C -5 1.326016 -4.473168 2.597899 -3.535534 3.535534 
C -2.597899 4.473168 -1.326016 5 0 5 
z
" id="m34929e8a48" style="stroke:#ffff00;"/>
    </defs>
    <g clip-path="url(#p10ee501f19)">
     <use style="fill:#ffff00;stroke:#ffff00;" x="49.233097" xlink:href="#m34929e8a48" y="330.478125"/>
    </g>
   </g>
   <g id="PathCollection_4">
    <g clip-path="url(#p10ee501f19)">
     <use style="fill:#ffff00;stroke:#ffff00;" x="165.181149" xlink:href="#m34929e8a48" y="42.478125"/>
    </g>
   </g>
   <g id="PathCollection_5">
    <g clip-path="url(#p10ee501f19)">
     <use style="fill:#ffff00;stroke:#ffff00;" x="455.051278" xlink:href="#m34929e8a48" y="157.678125"/>
    </g>
   </g>
   <g id="PathCollection_6">
    <g clip-path="url(#p10ee501f19)">
     <use style="fill:#ffff00;stroke:#ffff00;" x="49.233097" xlink:href="#m34929e8a48" y="42.478125"/>
    </g>
   </g>
   <g id="PathCollection_7">
    <g clip-path="url(#p10ee501f19)">
     <use style="fill:#ffff00;stroke:#ffff00;" x="165.181149" xlink:href="#m34929e8a48" y="445.678125"/>
    </g>
   </g>
   <g id="PathCollection_8">
    <g clip-path="url(#p10ee501f19)">
     <use style="fill:#ffff00;stroke:#ffff00;" x="223.155175" xlink:href="#m34929e8a48" y="388.078125"/>
    </g>
   </g>
   <g id="PathCollection_9">
    <defs>
     <path d="M 0 4.031129 
C 1.069068 4.031129 2.094493 3.606384 2.850439 2.850439 
C 3.606384 2.094493 4.031129 1.069068 4.031129 0 
C 4.031129 -1.069068 3.606384 -2.094493 2.850439 -2.850439 
C 2.094493 -3.606384 1.069068 -4.031129 0 -4.031129 
C -1.069068 -4.031129 -2.094493 -3.606384 -2.850439 -2.850439 
C -3.606384 -2.094493 -4.031129 -1.069068 -4.031129 0 
C -4.031129 1.069068 -3.606384 2.094493 -2.850439 2.850439 
C -2.094493 3.606384 -1.069068 4.031129 0 4.031129 
z
" id="mad0c6aa9f8" style="stroke:#ffffff;"/>
    </defs>
    <g clip-path="url(#p10ee501f19)">
     <use style="fill:#ffffff;stroke:#ffffff;" x="49.233097" xlink:href="#mad0c6aa9f8" y="445.678125"/>
    </g>
   </g>
   <g id="PathCollection_10">
    <g clip-path="url(#p10ee501f19)">
     <use style="fill:#ffffff;stroke:#ffffff;" x="49.233097" xlink:href="#mad0c6aa9f8" y="388.078125"/>
    </g>
   </g>
   <g id="PathCollection_11">
    <g clip-path="url(#p10ee501f19)">
     <use style="fill:#ffffff;stroke:#ffffff;" x="49.233097" xlink:href="#mad0c6aa9f8" y="330.478125"/>
    </g>
   </g>
   <g id="PathCollection_12">
    <g clip-path="url(#p10ee501f19)">
     <use style="fill:#ffffff;stroke:#ffffff;" x="49.233097" xlink:href="#mad0c6aa9f8" y="272.878125"/>
    </g>
   </g>
   <g id="PathCollection_13">
    <g clip-path="url(#p10ee501f19)">
     <use style="fill:#ffffff;stroke:#ffffff;" x="49.233097" xlink:href="#mad0c6aa9f8" y="215.278125"/>
    </g>
   </g>
   <g id="PathCollection_14">
    <g clip-path="url(#p10ee501f19)">
     <use style="fill:#ffffff;stroke:#ffffff;" x="49.233097" xlink:href="#mad0c6aa9f8" y="157.678125"/>
    </g>
   </g>
   <g id="PathCollection_15">
    <g clip-path="url(#p10ee501f19)">
     <use style="fill:#ffffff;stroke:#ffffff;" x="49.233097" xlink:href="#mad0c6aa9f8" y="100.078125"/>
    </g>
   </g>
   <g id="PathCollection_16">
    <g clip-path="url(#p10ee501f19)">
     <use style="fill:#ffffff;stroke:#ffffff;" x="49.233097" xlink:href="#mad0c6aa9f8" y="42.478125"/>
    </g>
   </g>
   <g id="PathCollection_17">
    <g clip-path="url(#p10ee501f19)">
     <use style="fill:#ffffff;stroke:#ffffff;" x="107.207123" xlink:href="#mad0c6aa9f8" y="445.678125"/>
    </g>
   </g>
   <g id="PathCollection_18">
    <defs>
     <path d="M 0 3.803194 
C 1.008619 3.803194 1.976063 3.402466 2.689264 2.689264 
C 3.402466 1.976063 3.803194 1.008619 3.803194 0 
C 3.803194 -1.008619 3.402466 -1.976063 2.689264 -2.689264 
C 1.976063 -3.402466 1.008619 -3.803194 0 -3.803194 
C -1.008619 -3.803194 -1.976063 -3.402466 -2.689264 -2.689264 
C -3.402466 -1.976063 -3.803194 -1.008619 -3.803194 0 
C -3.803194 1.008619 -3.402466 1.976063 -2.689264 2.689264 
C -1.976063 3.402466 -1.008619 3.803194 0 3.803194 
z
" id="me879b476de" style="stroke:#dbb6b6;"/>
    </defs>
    <g clip-path="url(#p10ee501f19)">
     <use style="fill:#dbb6b6;stroke:#dbb6b6;" x="107.207123" xlink:href="#me879b476de" y="388.078125"/>
    </g>
   </g>
   <g id="PathCollection_19">
    <g clip-path="url(#p10ee501f19)">
     <use style="fill:#dbb6b6;stroke:#dbb6b6;" x="107.207123" xlink:href="#me879b476de" y="330.478125"/>
    </g>
   </g>
   <g id="PathCollection_20">
    <g clip-path="url(#p10ee501f19)">
     <use style="fill:#dbb6b6;stroke:#dbb6b6;" x="107.207123" xlink:href="#me879b476de" y="272.878125"/>
    </g>
   </g>
   <g id="PathCollection_21">
    <g clip-path="url(#p10ee501f19)">
     <use style="fill:#dbb6b6;stroke:#dbb6b6;" x="107.207123" xlink:href="#me879b476de" y="215.278125"/>
    </g>
   </g>
   <g id="PathCollection_22">
    <g clip-path="url(#p10ee501f19)">
     <use style="fill:#dbb6b6;stroke:#dbb6b6;" x="107.207123" xlink:href="#me879b476de" y="157.678125"/>
    </g>
   </g>
   <g id="PathCollection_23">
    <g clip-path="url(#p10ee501f19)">
     <use style="fill:#dbb6b6;stroke:#dbb6b6;" x="107.207123" xlink:href="#me879b476de" y="100.078125"/>
    </g>
   </g>
   <g id="PathCollection_24">
    <g clip-path="url(#p10ee501f19)">
     <use style="fill:#ffffff;stroke:#ffffff;" x="107.207123" xlink:href="#mad0c6aa9f8" y="42.478125"/>
    </g>
   </g>
   <g id="PathCollection_25">
    <g clip-path="url(#p10ee501f19)">
     <use style="fill:#ffffff;stroke:#ffffff;" x="165.181149" xlink:href="#mad0c6aa9f8" y="445.678125"/>
    </g>
   </g>
   <g id="PathCollection_26">
    <g clip-path="url(#p10ee501f19)">
     <use style="fill:#dbb6b6;stroke:#dbb6b6;" x="165.181149" xlink:href="#me879b476de" y="388.078125"/>
    </g>
   </g>
   <g id="PathCollection_27">
    <defs>
     <path d="M 0 3.560698 
C 0.944308 3.560698 1.850067 3.185521 2.517794 2.517794 
C 3.185521 1.850067 3.560698 0.944308 3.560698 0 
C 3.560698 -0.944308 3.185521 -1.850067 2.517794 -2.517794 
C 1.850067 -3.185521 0.944308 -3.560698 0 -3.560698 
C -0.944308 -3.560698 -1.850067 -3.185521 -2.517794 -2.517794 
C -3.185521 -1.850067 -3.560698 -0.944308 -3.560698 0 
C -3.560698 0.944308 -3.185521 1.850067 -2.517794 2.517794 
C -1.850067 3.185521 -0.944308 3.560698 0 3.560698 
z
" id="m83471bb97b" style="stroke:#b66d6d;"/>
    </defs>
    <g clip-path="url(#p10ee501f19)">
     <use style="fill:#b66d6d;stroke:#b66d6d;" x="165.181149" xlink:href="#m83471bb97b" y="330.478125"/>
    </g>
   </g>
   <g id="PathCollection_28">
    <g clip-path="url(#p10ee501f19)">
     <use style="fill:#b66d6d;stroke:#b66d6d;" x="165.181149" xlink:href="#m83471bb97b" y="272.878125"/>
    </g>
   </g>
   <g id="PathCollection_29">
    <g clip-path="url(#p10ee501f19)">
     <use style="fill:#b66d6d;stroke:#b66d6d;" x="165.181149" xlink:href="#m83471bb97b" y="215.278125"/>
    </g>
   </g>
   <g id="PathCollection_30">
    <g clip-path="url(#p10ee501f19)">
     <use style="fill:#b66d6d;stroke:#b66d6d;" x="165.181149" xlink:href="#m83471bb97b" y="157.678125"/>
    </g>
   </g>
   <g id="PathCollection_31">
    <g clip-path="url(#p10ee501f19)">
     <use style="fill:#dbb6b6;stroke:#dbb6b6;" x="165.181149" xlink:href="#me879b476de" y="100.078125"/>
    </g>
   </g>
   <g id="PathCollection_32">
    <g clip-path="url(#p10ee501f19)">
     <use style="fill:#ffffff;stroke:#ffffff;" x="165.181149" xlink:href="#mad0c6aa9f8" y="42.478125"/>
    </g>
   </g>
   <g id="PathCollection_33">
    <g clip-path="url(#p10ee501f19)">
     <use style="fill:#ffffff;stroke:#ffffff;" x="223.155175" xlink:href="#mad0c6aa9f8" y="445.678125"/>
    </g>
   </g>
   <g id="PathCollection_34">
    <g clip-path="url(#p10ee501f19)">
     <use style="fill:#dbb6b6;stroke:#dbb6b6;" x="223.155175" xlink:href="#me879b476de" y="388.078125"/>
    </g>
   </g>
   <g id="PathCollection_35">
    <g clip-path="url(#p10ee501f19)">
     <use style="fill:#b66d6d;stroke:#b66d6d;" x="223.155175" xlink:href="#m83471bb97b" y="330.478125"/>
    </g>
   </g>
   <g id="PathCollection_36">
    <defs>
     <path d="M 0 3.300433 
C 0.875285 3.300433 1.714838 2.952678 2.333758 2.333758 
C 2.952678 1.714838 3.300433 0.875285 3.300433 0 
C 3.300433 -0.875285 2.952678 -1.714838 2.333758 -2.333758 
C 1.714838 -2.952678 0.875285 -3.300433 0 -3.300433 
C -0.875285 -3.300433 -1.714838 -2.952678 -2.333758 -2.333758 
C -2.952678 -1.714838 -3.300433 -0.875285 -3.300433 0 
C -3.300433 0.875285 -2.952678 1.714838 -2.333758 2.333758 
C -1.714838 2.952678 -0.875285 3.300433 0 3.300433 
z
" id="m0dc6334a6b" style="stroke:#922424;"/>
    </defs>
    <g clip-path="url(#p10ee501f19)">
     <use style="fill:#922424;stroke:#922424;" x="223.155175" xlink:href="#m0dc6334a6b" y="272.878125"/>
    </g>
   </g>
   <g id="PathCollection_37">
    <g clip-path="url(#p10ee501f19)">
     <use style="fill:#922424;stroke:#922424;" x="223.155175" xlink:href="#m0dc6334a6b" y="215.278125"/>
    </g>
   </g>
   <g id="PathCollection_38">
    <g clip-path="url(#p10ee501f19)">
     <use style="fill:#b66d6d;stroke:#b66d6d;" x="223.155175" xlink:href="#m83471bb97b" y="157.678125"/>
    </g>
   </g>
   <g id="PathCollection_39">
    <g clip-path="url(#p10ee501f19)">
     <use style="fill:#dbb6b6;stroke:#dbb6b6;" x="223.155175" xlink:href="#me879b476de" y="100.078125"/>
    </g>
   </g>
   <g id="PathCollection_40">
    <g clip-path="url(#p10ee501f19)">
     <use style="fill:#ffffff;stroke:#ffffff;" x="223.155175" xlink:href="#mad0c6aa9f8" y="42.478125"/>
    </g>
   </g>
   <g id="PathCollection_41">
    <g clip-path="url(#p10ee501f19)">
     <use style="fill:#ffffff;stroke:#ffffff;" x="281.1292" xlink:href="#mad0c6aa9f8" y="445.678125"/>
    </g>
   </g>
   <g id="PathCollection_42">
    <g clip-path="url(#p10ee501f19)">
     <use style="fill:#dbb6b6;stroke:#dbb6b6;" x="281.1292" xlink:href="#me879b476de" y="388.078125"/>
    </g>
   </g>
   <g id="PathCollection_43">
    <g clip-path="url(#p10ee501f19)">
     <use style="fill:#b66d6d;stroke:#b66d6d;" x="281.1292" xlink:href="#m83471bb97b" y="330.478125"/>
    </g>
   </g>
   <g id="PathCollection_44">
    <g clip-path="url(#p10ee501f19)">
     <use style="fill:#922424;stroke:#922424;" x="281.1292" xlink:href="#m0dc6334a6b" y="272.878125"/>
    </g>
   </g>
   <g id="PathCollection_45">
    <g clip-path="url(#p10ee501f19)">
     <use style="fill:#922424;stroke:#922424;" x="281.1292" xlink:href="#m0dc6334a6b" y="215.278125"/>
    </g>
   </g>
   <g id="PathCollection_46">
    <g clip-path="url(#p10ee501f19)">
     <use style="fill:#b66d6d;stroke:#b66d6d;" x="281.1292" xlink:href="#m83471bb97b" y="157.678125"/>
    </g>
   </g>
   <g id="PathCollection_47">
    <g clip-path="url(#p10ee501f19)">
     <use style="fill:#dbb6b6;stroke:#dbb6b6;" x="281.1292" xlink:href="#me879b476de" y="100.078125"/>
    </g>
   </g>
   <g id="PathCollection_48">
    <g clip-path="url(#p10ee501f19)">
     <use style="fill:#ffffff;stroke:#ffffff;" x="281.1292" xlink:href="#mad0c6aa9f8" y="42.478125"/>
    </g>
   </g>
   <g id="PathCollection_49">
    <g clip-path="url(#p10ee501f19)">
     <use style="fill:#ffffff;stroke:#ffffff;" x="339.103226" xlink:href="#mad0c6aa9f8" y="445.678125"/>
    </g>
   </g>
   <g id="PathCollection_50">
    <g clip-path="url(#p10ee501f19)">
     <use style="fill:#dbb6b6;stroke:#dbb6b6;" x="339.103226" xlink:href="#me879b476de" y="388.078125"/>
    </g>
   </g>
   <g id="PathCollection_51">
    <g clip-path="url(#p10ee501f19)">
     <use style="fill:#b66d6d;stroke:#b66d6d;" x="339.103226" xlink:href="#m83471bb97b" y="330.478125"/>
    </g>
   </g>
   <g id="PathCollection_52">
    <g clip-path="url(#p10ee501f19)">
     <use style="fill:#b66d6d;stroke:#b66d6d;" x="339.103226" xlink:href="#m83471bb97b" y="272.878125"/>
    </g>
   </g>
   <g id="PathCollection_53">
    <g clip-path="url(#p10ee501f19)">
     <use style="fill:#b66d6d;stroke:#b66d6d;" x="339.103226" xlink:href="#m83471bb97b" y="215.278125"/>
    </g>
   </g>
   <g id="PathCollection_54">
    <g clip-path="url(#p10ee501f19)">
     <use style="fill:#b66d6d;stroke:#b66d6d;" x="339.103226" xlink:href="#m83471bb97b" y="157.678125"/>
    </g>
   </g>
   <g id="PathCollection_55">
    <g clip-path="url(#p10ee501f19)">
     <use style="fill:#dbb6b6;stroke:#dbb6b6;" x="339.103226" xlink:href="#me879b476de" y="100.078125"/>
    </g>
   </g>
   <g id="PathCollection_56">
    <g clip-path="url(#p10ee501f19)">
     <use style="fill:#ffffff;stroke:#ffffff;" x="339.103226" xlink:href="#mad0c6aa9f8" y="42.478125"/>
    </g>
   </g>
   <g id="PathCollection_57">
    <g clip-path="url(#p10ee501f19)">
     <use style="fill:#ffffff;stroke:#ffffff;" x="397.077252" xlink:href="#mad0c6aa9f8" y="445.678125"/>
    </g>
   </g>
   <g id="PathCollection_58">
    <g clip-path="url(#p10ee501f19)">
     <use style="fill:#dbb6b6;stroke:#dbb6b6;" x="397.077252" xlink:href="#me879b476de" y="388.078125"/>
    </g>
   </g>
   <g id="PathCollection_59">
    <g clip-path="url(#p10ee501f19)">
     <use style="fill:#dbb6b6;stroke:#dbb6b6;" x="397.077252" xlink:href="#me879b476de" y="330.478125"/>
    </g>
   </g>
   <g id="PathCollection_60">
    <g clip-path="url(#p10ee501f19)">
     <use style="fill:#dbb6b6;stroke:#dbb6b6;" x="397.077252" xlink:href="#me879b476de" y="272.878125"/>
    </g>
   </g>
   <g id="PathCollection_61">
    <g clip-path="url(#p10ee501f19)">
     <use style="fill:#dbb6b6;stroke:#dbb6b6;" x="397.077252" xlink:href="#me879b476de" y="215.278125"/>
    </g>
   </g>
   <g id="PathCollection_62">
    <g clip-path="url(#p10ee501f19)">
     <use style="fill:#dbb6b6;stroke:#dbb6b6;" x="397.077252" xlink:href="#me879b476de" y="157.678125"/>
    </g>
   </g>
   <g id="PathCollection_63">
    <g clip-path="url(#p10ee501f19)">
     <use style="fill:#dbb6b6;stroke:#dbb6b6;" x="397.077252" xlink:href="#me879b476de" y="100.078125"/>
    </g>
   </g>
   <g id="PathCollection_64">
    <g clip-path="url(#p10ee501f19)">
     <use style="fill:#ffffff;stroke:#ffffff;" x="397.077252" xlink:href="#mad0c6aa9f8" y="42.478125"/>
    </g>
   </g>
   <g id="PathCollection_65">
    <g clip-path="url(#p10ee501f19)">
     <use style="fill:#ffffff;stroke:#ffffff;" x="455.051278" xlink:href="#mad0c6aa9f8" y="445.678125"/>
    </g>
   </g>
   <g id="PathCollection_66">
    <g clip-path="url(#p10ee501f19)">
     <use style="fill:#ffffff;stroke:#ffffff;" x="455.051278" xlink:href="#mad0c6aa9f8" y="388.078125"/>
    </g>
   </g>
   <g id="PathCollection_67">
    <g clip-path="url(#p10ee501f19)">
     <use style="fill:#ffffff;stroke:#ffffff;" x="455.051278" xlink:href="#mad0c6aa9f8" y="330.478125"/>
    </g>
   </g>
   <g id="PathCollection_68">
    <g clip-path="url(#p10ee501f19)">
     <use style="fill:#ffffff;stroke:#ffffff;" x="455.051278" xlink:href="#mad0c6aa9f8" y="272.878125"/>
    </g>
   </g>
   <g id="PathCollection_69">
    <g clip-path="url(#p10ee501f19)">
     <use style="fill:#ffffff;stroke:#ffffff;" x="455.051278" xlink:href="#mad0c6aa9f8" y="215.278125"/>
    </g>
   </g>
   <g id="PathCollection_70">
    <g clip-path="url(#p10ee501f19)">
     <use style="fill:#ffffff;stroke:#ffffff;" x="455.051278" xlink:href="#mad0c6aa9f8" y="157.678125"/>
    </g>
   </g>
   <g id="PathCollection_71">
    <g clip-path="url(#p10ee501f19)">
     <use style="fill:#ffffff;stroke:#ffffff;" x="455.051278" xlink:href="#mad0c6aa9f8" y="100.078125"/>
    </g>
   </g>
   <g id="PathCollection_72">
    <g clip-path="url(#p10ee501f19)">
     <use style="fill:#ffffff;stroke:#ffffff;" x="455.051278" xlink:href="#mad0c6aa9f8" y="42.478125"/>
    </g>
   </g>
   <g id="PathCollection_73"/>
   <g id="matplotlib.axis_1">
    <g id="xtick_1">
     <g id="line2d_1">
      <defs>
       <path d="M 0 0 
L 0 3.5 
" id="m425af58d71" style="stroke:#000000;stroke-width:0.8;"/>
      </defs>
      <g>
       <use style="stroke:#000000;stroke-width:0.8;" x="78.22011" xlink:href="#m425af58d71" y="465.838125"/>
      </g>
     </g>
     <g id="text_1">
      <!-- −6 -->
      <g transform="translate(70.849016 480.436562)scale(0.1 -0.1)">
       <defs>
        <path d="M 678 2272 
L 4684 2272 
L 4684 1741 
L 678 1741 
L 678 2272 
z
" id="DejaVuSans-2212" transform="scale(0.015625)"/>
        <path d="M 2113 2584 
Q 1688 2584 1439 2293 
Q 1191 2003 1191 1497 
Q 1191 994 1439 701 
Q 1688 409 2113 409 
Q 2538 409 2786 701 
Q 3034 994 3034 1497 
Q 3034 2003 2786 2293 
Q 2538 2584 2113 2584 
z
M 3366 4563 
L 3366 3988 
Q 3128 4100 2886 4159 
Q 2644 4219 2406 4219 
Q 1781 4219 1451 3797 
Q 1122 3375 1075 2522 
Q 1259 2794 1537 2939 
Q 1816 3084 2150 3084 
Q 2853 3084 3261 2657 
Q 3669 2231 3669 1497 
Q 3669 778 3244 343 
Q 2819 -91 2113 -91 
Q 1303 -91 875 529 
Q 447 1150 447 2328 
Q 447 3434 972 4092 
Q 1497 4750 2381 4750 
Q 2619 4750 2861 4703 
Q 3103 4656 3366 4563 
z
" id="DejaVuSans-36" transform="scale(0.015625)"/>
       </defs>
       <use xlink:href="#DejaVuSans-2212"/>
       <use x="83.789062" xlink:href="#DejaVuSans-36"/>
      </g>
     </g>
    </g>
    <g id="xtick_2">
     <g id="line2d_2">
      <g>
       <use style="stroke:#000000;stroke-width:0.8;" x="136.194136" xlink:href="#m425af58d71" y="465.838125"/>
      </g>
     </g>
     <g id="text_2">
      <!-- −4 -->
      <g transform="translate(128.823042 480.436562)scale(0.1 -0.1)">
       <defs>
        <path d="M 2419 4116 
L 825 1625 
L 2419 1625 
L 2419 4116 
z
M 2253 4666 
L 3047 4666 
L 3047 1625 
L 3713 1625 
L 3713 1100 
L 3047 1100 
L 3047 0 
L 2419 0 
L 2419 1100 
L 313 1100 
L 313 1709 
L 2253 4666 
z
" id="DejaVuSans-34" transform="scale(0.015625)"/>
       </defs>
       <use xlink:href="#DejaVuSans-2212"/>
       <use x="83.789062" xlink:href="#DejaVuSans-34"/>
      </g>
     </g>
    </g>
    <g id="xtick_3">
     <g id="line2d_3">
      <g>
       <use style="stroke:#000000;stroke-width:0.8;" x="194.168162" xlink:href="#m425af58d71" y="465.838125"/>
      </g>
     </g>
     <g id="text_3">
      <!-- −2 -->
      <g transform="translate(186.797068 480.436562)scale(0.1 -0.1)">
       <defs>
        <path d="M 1228 531 
L 3431 531 
L 3431 0 
L 469 0 
L 469 531 
Q 828 903 1448 1529 
Q 2069 2156 2228 2338 
Q 2531 2678 2651 2914 
Q 2772 3150 2772 3378 
Q 2772 3750 2511 3984 
Q 2250 4219 1831 4219 
Q 1534 4219 1204 4116 
Q 875 4013 500 3803 
L 500 4441 
Q 881 4594 1212 4672 
Q 1544 4750 1819 4750 
Q 2544 4750 2975 4387 
Q 3406 4025 3406 3419 
Q 3406 3131 3298 2873 
Q 3191 2616 2906 2266 
Q 2828 2175 2409 1742 
Q 1991 1309 1228 531 
z
" id="DejaVuSans-32" transform="scale(0.015625)"/>
       </defs>
       <use xlink:href="#DejaVuSans-2212"/>
       <use x="83.789062" xlink:href="#DejaVuSans-32"/>
      </g>
     </g>
    </g>
    <g id="xtick_4">
     <g id="line2d_4">
      <g>
       <use style="stroke:#000000;stroke-width:0.8;" x="252.142187" xlink:href="#m425af58d71" y="465.838125"/>
      </g>
     </g>
     <g id="text_4">
      <!-- 0 -->
      <g transform="translate(248.960937 480.436562)scale(0.1 -0.1)">
       <defs>
        <path d="M 2034 4250 
Q 1547 4250 1301 3770 
Q 1056 3291 1056 2328 
Q 1056 1369 1301 889 
Q 1547 409 2034 409 
Q 2525 409 2770 889 
Q 3016 1369 3016 2328 
Q 3016 3291 2770 3770 
Q 2525 4250 2034 4250 
z
M 2034 4750 
Q 2819 4750 3233 4129 
Q 3647 3509 3647 2328 
Q 3647 1150 3233 529 
Q 2819 -91 2034 -91 
Q 1250 -91 836 529 
Q 422 1150 422 2328 
Q 422 3509 836 4129 
Q 1250 4750 2034 4750 
z
" id="DejaVuSans-30" transform="scale(0.015625)"/>
       </defs>
       <use xlink:href="#DejaVuSans-30"/>
      </g>
     </g>
    </g>
    <g id="xtick_5">
     <g id="line2d_5">
      <g>
       <use style="stroke:#000000;stroke-width:0.8;" x="310.116213" xlink:href="#m425af58d71" y="465.838125"/>
      </g>
     </g>
     <g id="text_5">
      <!-- 2 -->
      <g transform="translate(306.934963 480.436562)scale(0.1 -0.1)">
       <use xlink:href="#DejaVuSans-32"/>
      </g>
     </g>
    </g>
    <g id="xtick_6">
     <g id="line2d_6">
      <g>
       <use style="stroke:#000000;stroke-width:0.8;" x="368.090239" xlink:href="#m425af58d71" y="465.838125"/>
      </g>
     </g>
     <g id="text_6">
      <!-- 4 -->
      <g transform="translate(364.908989 480.436562)scale(0.1 -0.1)">
       <use xlink:href="#DejaVuSans-34"/>
      </g>
     </g>
    </g>
    <g id="xtick_7">
     <g id="line2d_7">
      <g>
       <use style="stroke:#000000;stroke-width:0.8;" x="426.064265" xlink:href="#m425af58d71" y="465.838125"/>
      </g>
     </g>
     <g id="text_7">
      <!-- 6 -->
      <g transform="translate(422.883015 480.436562)scale(0.1 -0.1)">
       <use xlink:href="#DejaVuSans-36"/>
      </g>
     </g>
    </g>
   </g>
   <g id="matplotlib.axis_2">
    <g id="ytick_1">
     <g id="line2d_8">
      <defs>
       <path d="M 0 0 
L -3.5 0 
" id="mb690957cd9" style="stroke:#000000;stroke-width:0.8;"/>
      </defs>
      <g>
       <use style="stroke:#000000;stroke-width:0.8;" x="28.942188" xlink:href="#mb690957cd9" y="416.878125"/>
      </g>
     </g>
     <g id="text_8">
      <!-- −6 -->
      <g transform="translate(7.2 420.677344)scale(0.1 -0.1)">
       <use xlink:href="#DejaVuSans-2212"/>
       <use x="83.789062" xlink:href="#DejaVuSans-36"/>
      </g>
     </g>
    </g>
    <g id="ytick_2">
     <g id="line2d_9">
      <g>
       <use style="stroke:#000000;stroke-width:0.8;" x="28.942188" xlink:href="#mb690957cd9" y="359.278125"/>
      </g>
     </g>
     <g id="text_9">
      <!-- −4 -->
      <g transform="translate(7.2 363.077344)scale(0.1 -0.1)">
       <use xlink:href="#DejaVuSans-2212"/>
       <use x="83.789062" xlink:href="#DejaVuSans-34"/>
      </g>
     </g>
    </g>
    <g id="ytick_3">
     <g id="line2d_10">
      <g>
       <use style="stroke:#000000;stroke-width:0.8;" x="28.942188" xlink:href="#mb690957cd9" y="301.678125"/>
      </g>
     </g>
     <g id="text_10">
      <!-- −2 -->
      <g transform="translate(7.2 305.477344)scale(0.1 -0.1)">
       <use xlink:href="#DejaVuSans-2212"/>
       <use x="83.789062" xlink:href="#DejaVuSans-32"/>
      </g>
     </g>
    </g>
    <g id="ytick_4">
     <g id="line2d_11">
      <g>
       <use style="stroke:#000000;stroke-width:0.8;" x="28.942188" xlink:href="#mb690957cd9" y="244.078125"/>
      </g>
     </g>
     <g id="text_11">
      <!-- 0 -->
      <g transform="translate(15.579688 247.877344)scale(0.1 -0.1)">
       <use xlink:href="#DejaVuSans-30"/>
      </g>
     </g>
    </g>
    <g id="ytick_5">
     <g id="line2d_12">
      <g>
       <use style="stroke:#000000;stroke-width:0.8;" x="28.942188" xlink:href="#mb690957cd9" y="186.478125"/>
      </g>
     </g>
     <g id="text_12">
      <!-- 2 -->
      <g transform="translate(15.579688 190.277344)scale(0.1 -0.1)">
       <use xlink:href="#DejaVuSans-32"/>
      </g>
     </g>
    </g>
    <g id="ytick_6">
     <g id="line2d_13">
      <g>
       <use style="stroke:#000000;stroke-width:0.8;" x="28.942188" xlink:href="#mb690957cd9" y="128.878125"/>
      </g>
     </g>
     <g id="text_13">
      <!-- 4 -->
      <g transform="translate(15.579688 132.677344)scale(0.1 -0.1)">
       <use xlink:href="#DejaVuSans-34"/>
      </g>
     </g>
    </g>
    <g id="ytick_7">
     <g id="line2d_14">
      <g>
       <use style="stroke:#000000;stroke-width:0.8;" x="28.942188" xlink:href="#mb690957cd9" y="71.278125"/>
      </g>
     </g>
     <g id="text_14">
      <!-- 6 -->
      <g transform="translate(15.579688 75.077344)scale(0.1 -0.1)">
       <use xlink:href="#DejaVuSans-36"/>
      </g>
     </g>
    </g>
   </g>
   <g id="line2d_15">
    <path clip-path="url(#p10ee501f19)" d="M 237.648681 244.078125 
L 165.181149 272.878125 
L 107.207123 272.878125 
L 107.207123 215.278125 
L 165.181149 42.478125 
L 165.181149 42.478125 
" style="fill:none;stroke:#0000ff;stroke-linecap:square;stroke-width:1.5;"/>
   </g>
   <g id="line2d_16">
    <path clip-path="url(#p10ee501f19)" d="M 165.181149 42.478125 
L 281.1292 42.478125 
L 223.155175 42.478125 
L 165.181149 100.078125 
L 107.207123 42.478125 
L 49.233097 42.478125 
L 49.233097 42.478125 
" style="fill:none;stroke:#4000bf;stroke-linecap:square;stroke-width:1.5;"/>
   </g>
   <g id="line2d_17">
    <path clip-path="url(#p10ee501f19)" d="M 49.233097 42.478125 
L 49.233097 100.078125 
L 49.233097 157.678125 
L 49.233097 215.278125 
L 107.207123 157.678125 
L 107.207123 100.078125 
L 165.181149 42.478125 
" style="fill:none;stroke:#800080;stroke-linecap:square;stroke-width:1.5;"/>
   </g>
   <g id="line2d_18">
    <path clip-path="url(#p10ee501f19)" d="M 165.181149 42.478125 
L 223.155175 100.078125 
L 223.155175 157.678125 
L 223.155175 215.278125 
L 266.635694 244.078125 
" style="fill:none;stroke:#bf0040;stroke-linecap:square;stroke-width:1.5;"/>
   </g>
   <g id="patch_3">
    <path d="M 28.942188 465.838125 
L 28.942188 22.318125 
" style="fill:none;stroke:#000000;stroke-linecap:square;stroke-linejoin:miter;stroke-width:0.8;"/>
   </g>
   <g id="patch_4">
    <path d="M 475.342187 465.838125 
L 475.342187 22.318125 
" style="fill:none;stroke:#000000;stroke-linecap:square;stroke-linejoin:miter;stroke-width:0.8;"/>
   </g>
   <g id="patch_5">
    <path d="M 28.942188 465.838125 
L 475.342187 465.838125 
" style="fill:none;stroke:#000000;stroke-linecap:square;stroke-linejoin:miter;stroke-width:0.8;"/>
   </g>
   <g id="patch_6">
    <path d="M 28.942188 22.318125 
L 475.342187 22.318125 
" style="fill:none;stroke:#000000;stroke-linecap:square;stroke-linejoin:miter;stroke-width:0.8;"/>
   </g>
   <g id="text_15">
    <!-- SET2 6-4/66-50-6-4 - Score: 465.0 -->
    <g transform="translate(150.046562 16.318125)scale(0.12 -0.12)">
     <defs>
      <path d="M 3425 4513 
L 3425 3897 
Q 3066 4069 2747 4153 
Q 2428 4238 2131 4238 
Q 1616 4238 1336 4038 
Q 1056 3838 1056 3469 
Q 1056 3159 1242 3001 
Q 1428 2844 1947 2747 
L 2328 2669 
Q 3034 2534 3370 2195 
Q 3706 1856 3706 1288 
Q 3706 609 3251 259 
Q 2797 -91 1919 -91 
Q 1588 -91 1214 -16 
Q 841 59 441 206 
L 441 856 
Q 825 641 1194 531 
Q 1563 422 1919 422 
Q 2459 422 2753 634 
Q 3047 847 3047 1241 
Q 3047 1584 2836 1778 
Q 2625 1972 2144 2069 
L 1759 2144 
Q 1053 2284 737 2584 
Q 422 2884 422 3419 
Q 422 4038 858 4394 
Q 1294 4750 2059 4750 
Q 2388 4750 2728 4690 
Q 3069 4631 3425 4513 
z
" id="DejaVuSans-53" transform="scale(0.015625)"/>
      <path d="M 628 4666 
L 3578 4666 
L 3578 4134 
L 1259 4134 
L 1259 2753 
L 3481 2753 
L 3481 2222 
L 1259 2222 
L 1259 531 
L 3634 531 
L 3634 0 
L 628 0 
L 628 4666 
z
" id="DejaVuSans-45" transform="scale(0.015625)"/>
      <path d="M -19 4666 
L 3928 4666 
L 3928 4134 
L 2272 4134 
L 2272 0 
L 1638 0 
L 1638 4134 
L -19 4134 
L -19 4666 
z
" id="DejaVuSans-54" transform="scale(0.015625)"/>
      <path id="DejaVuSans-20" transform="scale(0.015625)"/>
      <path d="M 313 2009 
L 1997 2009 
L 1997 1497 
L 313 1497 
L 313 2009 
z
" id="DejaVuSans-2d" transform="scale(0.015625)"/>
      <path d="M 1625 4666 
L 2156 4666 
L 531 -594 
L 0 -594 
L 1625 4666 
z
" id="DejaVuSans-2f" transform="scale(0.015625)"/>
      <path d="M 691 4666 
L 3169 4666 
L 3169 4134 
L 1269 4134 
L 1269 2991 
Q 1406 3038 1543 3061 
Q 1681 3084 1819 3084 
Q 2600 3084 3056 2656 
Q 3513 2228 3513 1497 
Q 3513 744 3044 326 
Q 2575 -91 1722 -91 
Q 1428 -91 1123 -41 
Q 819 9 494 109 
L 494 744 
Q 775 591 1075 516 
Q 1375 441 1709 441 
Q 2250 441 2565 725 
Q 2881 1009 2881 1497 
Q 2881 1984 2565 2268 
Q 2250 2553 1709 2553 
Q 1456 2553 1204 2497 
Q 953 2441 691 2322 
L 691 4666 
z
" id="DejaVuSans-35" transform="scale(0.015625)"/>
      <path d="M 3122 3366 
L 3122 2828 
Q 2878 2963 2633 3030 
Q 2388 3097 2138 3097 
Q 1578 3097 1268 2742 
Q 959 2388 959 1747 
Q 959 1106 1268 751 
Q 1578 397 2138 397 
Q 2388 397 2633 464 
Q 2878 531 3122 666 
L 3122 134 
Q 2881 22 2623 -34 
Q 2366 -91 2075 -91 
Q 1284 -91 818 406 
Q 353 903 353 1747 
Q 353 2603 823 3093 
Q 1294 3584 2113 3584 
Q 2378 3584 2631 3529 
Q 2884 3475 3122 3366 
z
" id="DejaVuSans-63" transform="scale(0.015625)"/>
      <path d="M 1959 3097 
Q 1497 3097 1228 2736 
Q 959 2375 959 1747 
Q 959 1119 1226 758 
Q 1494 397 1959 397 
Q 2419 397 2687 759 
Q 2956 1122 2956 1747 
Q 2956 2369 2687 2733 
Q 2419 3097 1959 3097 
z
M 1959 3584 
Q 2709 3584 3137 3096 
Q 3566 2609 3566 1747 
Q 3566 888 3137 398 
Q 2709 -91 1959 -91 
Q 1206 -91 779 398 
Q 353 888 353 1747 
Q 353 2609 779 3096 
Q 1206 3584 1959 3584 
z
" id="DejaVuSans-6f" transform="scale(0.015625)"/>
      <path d="M 2631 2963 
Q 2534 3019 2420 3045 
Q 2306 3072 2169 3072 
Q 1681 3072 1420 2755 
Q 1159 2438 1159 1844 
L 1159 0 
L 581 0 
L 581 3500 
L 1159 3500 
L 1159 2956 
Q 1341 3275 1631 3429 
Q 1922 3584 2338 3584 
Q 2397 3584 2469 3576 
Q 2541 3569 2628 3553 
L 2631 2963 
z
" id="DejaVuSans-72" transform="scale(0.015625)"/>
      <path d="M 3597 1894 
L 3597 1613 
L 953 1613 
Q 991 1019 1311 708 
Q 1631 397 2203 397 
Q 2534 397 2845 478 
Q 3156 559 3463 722 
L 3463 178 
Q 3153 47 2828 -22 
Q 2503 -91 2169 -91 
Q 1331 -91 842 396 
Q 353 884 353 1716 
Q 353 2575 817 3079 
Q 1281 3584 2069 3584 
Q 2775 3584 3186 3129 
Q 3597 2675 3597 1894 
z
M 3022 2063 
Q 3016 2534 2758 2815 
Q 2500 3097 2075 3097 
Q 1594 3097 1305 2825 
Q 1016 2553 972 2059 
L 3022 2063 
z
" id="DejaVuSans-65" transform="scale(0.015625)"/>
      <path d="M 750 794 
L 1409 794 
L 1409 0 
L 750 0 
L 750 794 
z
M 750 3309 
L 1409 3309 
L 1409 2516 
L 750 2516 
L 750 3309 
z
" id="DejaVuSans-3a" transform="scale(0.015625)"/>
      <path d="M 684 794 
L 1344 794 
L 1344 0 
L 684 0 
L 684 794 
z
" id="DejaVuSans-2e" transform="scale(0.015625)"/>
     </defs>
     <use xlink:href="#DejaVuSans-53"/>
     <use x="63.476562" xlink:href="#DejaVuSans-45"/>
     <use x="126.660156" xlink:href="#DejaVuSans-54"/>
     <use x="187.744141" xlink:href="#DejaVuSans-32"/>
     <use x="251.367188" xlink:href="#DejaVuSans-20"/>
     <use x="283.154297" xlink:href="#DejaVuSans-36"/>
     <use x="346.777344" xlink:href="#DejaVuSans-2d"/>
     <use x="382.861328" xlink:href="#DejaVuSans-34"/>
     <use x="446.484375" xlink:href="#DejaVuSans-2f"/>
     <use x="480.175781" xlink:href="#DejaVuSans-36"/>
     <use x="543.798828" xlink:href="#DejaVuSans-36"/>
     <use x="607.421875" xlink:href="#DejaVuSans-2d"/>
     <use x="643.505859" xlink:href="#DejaVuSans-35"/>
     <use x="707.128906" xlink:href="#DejaVuSans-30"/>
     <use x="770.751953" xlink:href="#DejaVuSans-2d"/>
     <use x="806.835938" xlink:href="#DejaVuSans-36"/>
     <use x="870.458984" xlink:href="#DejaVuSans-2d"/>
     <use x="906.542969" xlink:href="#DejaVuSans-34"/>
     <use x="970.166016" xlink:href="#DejaVuSans-20"/>
     <use x="1001.953125" xlink:href="#DejaVuSans-2d"/>
     <use x="1038.037109" xlink:href="#DejaVuSans-20"/>
     <use x="1069.824219" xlink:href="#DejaVuSans-53"/>
     <use x="1133.300781" xlink:href="#DejaVuSans-63"/>
     <use x="1188.28125" xlink:href="#DejaVuSans-6f"/>
     <use x="1249.462891" xlink:href="#DejaVuSans-72"/>
     <use x="1288.326172" xlink:href="#DejaVuSans-65"/>
     <use x="1349.849609" xlink:href="#DejaVuSans-3a"/>
     <use x="1383.541016" xlink:href="#DejaVuSans-20"/>
     <use x="1415.328125" xlink:href="#DejaVuSans-34"/>
     <use x="1478.951172" xlink:href="#DejaVuSans-36"/>
     <use x="1542.574219" xlink:href="#DejaVuSans-35"/>
     <use x="1606.197266" xlink:href="#DejaVuSans-2e"/>
     <use x="1637.984375" xlink:href="#DejaVuSans-30"/>
    </g>
   </g>
   <g id="legend_1">
    <g id="patch_7">
     <path d="M 356.948437 267.595312 
L 468.342187 267.595312 
Q 470.342187 267.595312 470.342187 265.595312 
L 470.342187 222.560937 
Q 470.342187 220.560937 468.342187 220.560937 
L 356.948437 220.560937 
Q 354.948437 220.560937 354.948437 222.560937 
L 354.948437 265.595312 
Q 354.948437 267.595312 356.948437 267.595312 
z
" style="fill:#ffffff;opacity:0.8;stroke:#cccccc;stroke-linejoin:miter;"/>
    </g>
    <g id="PathCollection_74">
     <defs>
      <path d="M 0 -5.59017 
L -1.255071 -1.727457 
L -5.316568 -1.727458 
L -2.030748 0.65983 
L -3.285819 4.522542 
L -0 2.135255 
L 3.285819 4.522542 
L 2.030748 0.65983 
L 5.316568 -1.727458 
L 1.255071 -1.727457 
z
" id="m9539da8494" style="stroke:#0000ff;"/>
     </defs>
     <g>
      <use style="fill:#0000ff;stroke:#0000ff;" x="368.948437" xlink:href="#m9539da8494" y="229.534375"/>
     </g>
    </g>
    <g id="text_16">
     <!-- Hotel Início -->
     <g transform="translate(386.948437 232.159375)scale(0.1 -0.1)">
      <defs>
       <path d="M 628 4666 
L 1259 4666 
L 1259 2753 
L 3553 2753 
L 3553 4666 
L 4184 4666 
L 4184 0 
L 3553 0 
L 3553 2222 
L 1259 2222 
L 1259 0 
L 628 0 
L 628 4666 
z
" id="DejaVuSans-48" transform="scale(0.015625)"/>
       <path d="M 1172 4494 
L 1172 3500 
L 2356 3500 
L 2356 3053 
L 1172 3053 
L 1172 1153 
Q 1172 725 1289 603 
Q 1406 481 1766 481 
L 2356 481 
L 2356 0 
L 1766 0 
Q 1100 0 847 248 
Q 594 497 594 1153 
L 594 3053 
L 172 3053 
L 172 3500 
L 594 3500 
L 594 4494 
L 1172 4494 
z
" id="DejaVuSans-74" transform="scale(0.015625)"/>
       <path d="M 603 4863 
L 1178 4863 
L 1178 0 
L 603 0 
L 603 4863 
z
" id="DejaVuSans-6c" transform="scale(0.015625)"/>
       <path d="M 628 4666 
L 1259 4666 
L 1259 0 
L 628 0 
L 628 4666 
z
" id="DejaVuSans-49" transform="scale(0.015625)"/>
       <path d="M 3513 2113 
L 3513 0 
L 2938 0 
L 2938 2094 
Q 2938 2591 2744 2837 
Q 2550 3084 2163 3084 
Q 1697 3084 1428 2787 
Q 1159 2491 1159 1978 
L 1159 0 
L 581 0 
L 581 3500 
L 1159 3500 
L 1159 2956 
Q 1366 3272 1645 3428 
Q 1925 3584 2291 3584 
Q 2894 3584 3203 3211 
Q 3513 2838 3513 2113 
z
" id="DejaVuSans-6e" transform="scale(0.015625)"/>
       <path d="M 1322 5119 
L 1944 5119 
L 926 3944 
L 447 3944 
L 1322 5119 
z
M 603 3500 
L 1178 3500 
L 1178 0 
L 603 0 
L 603 3500 
z
M 891 3584 
L 891 3584 
z
" id="DejaVuSans-ed" transform="scale(0.015625)"/>
       <path d="M 603 3500 
L 1178 3500 
L 1178 0 
L 603 0 
L 603 3500 
z
M 603 4863 
L 1178 4863 
L 1178 4134 
L 603 4134 
L 603 4863 
z
" id="DejaVuSans-69" transform="scale(0.015625)"/>
      </defs>
      <use xlink:href="#DejaVuSans-48"/>
      <use x="75.195312" xlink:href="#DejaVuSans-6f"/>
      <use x="136.376953" xlink:href="#DejaVuSans-74"/>
      <use x="175.585938" xlink:href="#DejaVuSans-65"/>
      <use x="237.109375" xlink:href="#DejaVuSans-6c"/>
      <use x="264.892578" xlink:href="#DejaVuSans-20"/>
      <use x="296.679688" xlink:href="#DejaVuSans-49"/>
      <use x="326.171875" xlink:href="#DejaVuSans-6e"/>
      <use x="389.550781" xlink:href="#DejaVuSans-ed"/>
      <use x="417.333984" xlink:href="#DejaVuSans-63"/>
      <use x="472.314453" xlink:href="#DejaVuSans-69"/>
      <use x="500.097656" xlink:href="#DejaVuSans-6f"/>
     </g>
    </g>
    <g id="PathCollection_75">
     <defs>
      <path d="M -5.59017 5.59017 
L 5.59017 -5.59017 
M -5.59017 -5.59017 
L 5.59017 5.59017 
" id="m562b2f29ac" style="stroke:#000000;stroke-width:1.5;"/>
     </defs>
     <g>
      <use style="stroke:#000000;stroke-width:1.5;" x="368.948437" xlink:href="#m562b2f29ac" y="244.2125"/>
     </g>
    </g>
    <g id="text_17">
     <!-- Hotel Final -->
     <g transform="translate(386.948437 246.8375)scale(0.1 -0.1)">
      <defs>
       <path d="M 628 4666 
L 3309 4666 
L 3309 4134 
L 1259 4134 
L 1259 2759 
L 3109 2759 
L 3109 2228 
L 1259 2228 
L 1259 0 
L 628 0 
L 628 4666 
z
" id="DejaVuSans-46" transform="scale(0.015625)"/>
       <path d="M 2194 1759 
Q 1497 1759 1228 1600 
Q 959 1441 959 1056 
Q 959 750 1161 570 
Q 1363 391 1709 391 
Q 2188 391 2477 730 
Q 2766 1069 2766 1631 
L 2766 1759 
L 2194 1759 
z
M 3341 1997 
L 3341 0 
L 2766 0 
L 2766 531 
Q 2569 213 2275 61 
Q 1981 -91 1556 -91 
Q 1019 -91 701 211 
Q 384 513 384 1019 
Q 384 1609 779 1909 
Q 1175 2209 1959 2209 
L 2766 2209 
L 2766 2266 
Q 2766 2663 2505 2880 
Q 2244 3097 1772 3097 
Q 1472 3097 1187 3025 
Q 903 2953 641 2809 
L 641 3341 
Q 956 3463 1253 3523 
Q 1550 3584 1831 3584 
Q 2591 3584 2966 3190 
Q 3341 2797 3341 1997 
z
" id="DejaVuSans-61" transform="scale(0.015625)"/>
      </defs>
      <use xlink:href="#DejaVuSans-48"/>
      <use x="75.195312" xlink:href="#DejaVuSans-6f"/>
      <use x="136.376953" xlink:href="#DejaVuSans-74"/>
      <use x="175.585938" xlink:href="#DejaVuSans-65"/>
      <use x="237.109375" xlink:href="#DejaVuSans-6c"/>
      <use x="264.892578" xlink:href="#DejaVuSans-20"/>
      <use x="296.679688" xlink:href="#DejaVuSans-46"/>
      <use x="346.949219" xlink:href="#DejaVuSans-69"/>
      <use x="374.732422" xlink:href="#DejaVuSans-6e"/>
      <use x="438.111328" xlink:href="#DejaVuSans-61"/>
      <use x="499.390625" xlink:href="#DejaVuSans-6c"/>
     </g>
    </g>
    <g id="PathCollection_76">
     <defs>
      <path d="M 0 2.5 
C 0.663008 2.5 1.29895 2.236584 1.767767 1.767767 
C 2.236584 1.29895 2.5 0.663008 2.5 0 
C 2.5 -0.663008 2.236584 -1.29895 1.767767 -1.767767 
C 1.29895 -2.236584 0.663008 -2.5 0 -2.5 
C -0.663008 -2.5 -1.29895 -2.236584 -1.767767 -1.767767 
C -2.236584 -1.29895 -2.5 -0.663008 -2.5 0 
C -2.5 0.663008 -2.236584 1.29895 -1.767767 1.767767 
C -1.29895 2.236584 -0.663008 2.5 0 2.5 
z
" id="m627eac0d76" style="stroke:#ffff00;"/>
     </defs>
     <g>
      <use style="fill:#ffff00;stroke:#ffff00;" x="368.948437" xlink:href="#m627eac0d76" y="258.890625"/>
     </g>
    </g>
    <g id="text_18">
     <!-- Hotéis Extras: 6 -->
     <g transform="translate(386.948437 261.515625)scale(0.1 -0.1)">
      <defs>
       <path d="M 3597 1894 
L 3597 1613 
L 953 1613 
Q 991 1019 1311 708 
Q 1631 397 2203 397 
Q 2534 397 2845 478 
Q 3156 559 3463 722 
L 3463 178 
Q 3153 47 2828 -22 
Q 2503 -91 2169 -91 
Q 1331 -91 842 396 
Q 353 884 353 1716 
Q 353 2575 817 3079 
Q 1281 3584 2069 3584 
Q 2775 3584 3186 3129 
Q 3597 2675 3597 1894 
z
M 3022 2063 
Q 3016 2534 2758 2815 
Q 2500 3097 2075 3097 
Q 1594 3097 1305 2825 
Q 1016 2553 972 2059 
L 3022 2063 
z
M 2466 5119 
L 3088 5119 
L 2070 3944 
L 1591 3944 
L 2466 5119 
z
" id="DejaVuSans-e9" transform="scale(0.015625)"/>
       <path d="M 2834 3397 
L 2834 2853 
Q 2591 2978 2328 3040 
Q 2066 3103 1784 3103 
Q 1356 3103 1142 2972 
Q 928 2841 928 2578 
Q 928 2378 1081 2264 
Q 1234 2150 1697 2047 
L 1894 2003 
Q 2506 1872 2764 1633 
Q 3022 1394 3022 966 
Q 3022 478 2636 193 
Q 2250 -91 1575 -91 
Q 1294 -91 989 -36 
Q 684 19 347 128 
L 347 722 
Q 666 556 975 473 
Q 1284 391 1588 391 
Q 1994 391 2212 530 
Q 2431 669 2431 922 
Q 2431 1156 2273 1281 
Q 2116 1406 1581 1522 
L 1381 1569 
Q 847 1681 609 1914 
Q 372 2147 372 2553 
Q 372 3047 722 3315 
Q 1072 3584 1716 3584 
Q 2034 3584 2315 3537 
Q 2597 3491 2834 3397 
z
" id="DejaVuSans-73" transform="scale(0.015625)"/>
       <path d="M 3513 3500 
L 2247 1797 
L 3578 0 
L 2900 0 
L 1881 1375 
L 863 0 
L 184 0 
L 1544 1831 
L 300 3500 
L 978 3500 
L 1906 2253 
L 2834 3500 
L 3513 3500 
z
" id="DejaVuSans-78" transform="scale(0.015625)"/>
      </defs>
      <use xlink:href="#DejaVuSans-48"/>
      <use x="75.195312" xlink:href="#DejaVuSans-6f"/>
      <use x="136.376953" xlink:href="#DejaVuSans-74"/>
      <use x="175.585938" xlink:href="#DejaVuSans-e9"/>
      <use x="237.109375" xlink:href="#DejaVuSans-69"/>
      <use x="264.892578" xlink:href="#DejaVuSans-73"/>
      <use x="316.992188" xlink:href="#DejaVuSans-20"/>
      <use x="348.779297" xlink:href="#DejaVuSans-45"/>
      <use x="411.962891" xlink:href="#DejaVuSans-78"/>
      <use x="471.142578" xlink:href="#DejaVuSans-74"/>
      <use x="510.351562" xlink:href="#DejaVuSans-72"/>
      <use x="551.464844" xlink:href="#DejaVuSans-61"/>
      <use x="612.744141" xlink:href="#DejaVuSans-73"/>
      <use x="664.84375" xlink:href="#DejaVuSans-3a"/>
      <use x="698.535156" xlink:href="#DejaVuSans-20"/>
      <use x="730.322266" xlink:href="#DejaVuSans-36"/>
     </g>
    </g>
   </g>
  </g>
 </g>
 <defs>
  <clipPath id="p10ee501f19">
   <rect height="443.52" width="446.4" x="28.942188" y="22.318125"/>
  </clipPath>
 </defs>
</svg>
